<svg width="231" height="250" viewBox="0 0 231 250" fill="none" xmlns="http://www.w3.org/2000/svg" opacity="0.4">
<g style="mix-blend-mode:overlay">
<g style="mix-blend-mode:overlay">
<path d="M124.886 249.868C95.9831 249.85 67.9795 239.816 45.6449 221.475C23.3103 203.133 8.0259 177.618 2.39476 149.275C-3.23639 120.932 1.13393 91.5134 14.7615 66.0301C28.389 40.5467 50.431 20.5743 77.1335 9.51436C103.836 -1.54563 133.548 -3.00926 161.208 5.37279C188.869 13.7548 212.768 31.4642 228.835 55.4847C244.902 79.5053 252.144 108.352 249.327 137.111C246.51 165.87 233.809 192.764 213.386 213.212C201.795 224.874 188.004 234.119 172.812 240.411C157.62 246.703 141.33 249.918 124.886 249.868ZM124.886 0.49437C100.281 0.49437 76.2291 7.78896 55.7709 21.4557C35.3126 35.1224 19.3674 54.5474 9.95147 77.2743C0.535574 100.001 -1.92808 125.009 2.8721 149.136C7.67228 173.263 19.5207 195.425 36.919 212.819C54.3173 230.213 76.484 242.059 100.616 246.858C124.748 251.657 149.762 249.194 172.494 239.781C195.226 230.367 214.655 214.425 228.325 193.971C241.995 173.518 249.291 149.471 249.291 124.871C249.254 91.8957 236.135 60.2814 212.813 36.9642C189.491 13.6469 157.869 0.531171 124.886 0.49437Z" fill="white"/>
</g>
<g style="mix-blend-mode:overlay">
<path d="M124.886 234.257C103.239 234.257 82.0778 227.839 64.0788 215.815C46.0799 203.791 32.0516 186.7 23.7681 166.705C15.4846 146.71 13.3179 124.708 17.542 103.481C21.7661 82.2547 32.1913 62.7572 47.4992 47.4545C62.8071 32.1518 82.31 21.7312 103.542 17.5105C124.773 13.2898 146.78 15.4586 166.779 23.7425C186.778 32.0265 203.871 46.0536 215.895 64.0499C227.92 82.0462 234.337 103.203 234.335 124.846C234.301 153.856 222.759 181.667 202.24 202.179C181.722 222.691 153.902 234.227 124.886 234.257ZM124.886 16.0542C103.365 16.0542 82.326 22.4347 64.4313 34.3889C46.5366 46.3431 32.5894 63.3341 24.3533 83.2132C16.1173 103.092 13.9624 124.967 18.1611 146.07C22.3598 167.174 32.7235 186.559 47.9417 201.773C63.1599 216.988 82.5491 227.35 103.657 231.547C124.766 235.745 146.645 233.591 166.528 225.357C186.412 217.122 203.407 203.178 215.364 185.288C227.32 167.397 233.702 146.363 233.702 124.846C233.666 96.0062 222.189 68.3586 201.789 47.9682C181.389 27.5777 153.733 16.1096 124.886 16.0795V16.0542Z" fill="white"/>
</g>
<g style="mix-blend-mode:overlay">
<path d="M124.886 218.697C106.322 218.7 88.173 213.198 72.7359 202.888C57.2988 192.578 45.2666 177.922 38.161 160.775C31.0554 143.628 29.1956 124.759 32.8168 106.555C36.438 88.3505 45.3775 71.6289 58.5048 58.5046C71.6321 45.3802 88.3575 36.4427 106.566 32.8223C124.774 29.2019 143.647 31.0613 160.798 38.1653C177.949 45.2693 192.608 57.2988 202.921 72.7324C213.233 88.1661 218.736 106.311 218.733 124.871C218.707 149.747 208.811 173.597 191.217 191.187C173.623 208.777 149.768 218.671 124.886 218.697ZM124.886 31.6265C106.447 31.624 88.4213 37.0884 73.0884 47.3286C57.7556 57.5687 45.8043 72.1248 38.7462 89.1559C31.6881 106.187 29.8401 124.928 33.4359 143.009C37.0316 161.091 45.9098 177.7 58.9474 190.736C71.985 203.773 88.5965 212.651 106.681 216.248C124.766 219.846 143.512 218.001 160.547 210.946C177.583 203.892 192.144 191.946 202.389 176.618C212.633 161.29 218.101 143.268 218.101 124.833C218.065 100.13 208.231 76.45 190.757 58.9847C173.283 41.5193 149.595 31.6945 124.886 31.6644V31.6265Z" fill="white"/>
</g>
<g style="mix-blend-mode:overlay">
<path d="M124.886 203.112C109.405 203.115 94.2699 198.527 81.3963 189.93C68.5228 181.332 58.4886 169.11 52.5629 154.811C46.6371 140.511 45.086 124.776 48.1057 109.595C51.1254 94.4143 58.5803 80.4696 69.5275 69.5249C80.4747 58.5801 94.4225 51.1269 109.607 48.1078C124.791 45.0888 140.53 46.6396 154.833 52.564C169.135 58.4884 181.359 68.5203 189.959 81.391C198.559 94.2617 203.147 109.393 203.145 124.871C203.111 145.612 194.856 165.493 180.187 180.159C165.517 194.825 145.631 203.079 124.886 203.112ZM124.886 47.2494C109.529 47.2394 94.5128 51.7834 81.7385 60.3065C68.9642 68.8296 59.0051 80.949 53.121 95.1316C47.2369 109.314 45.6922 124.923 48.6822 139.984C51.6722 155.044 59.0626 168.88 69.9186 179.74C80.7746 190.601 94.6086 197.999 109.67 200.998C124.732 203.997 140.346 202.463 154.535 196.589C168.725 190.716 180.853 180.767 189.387 168.001C197.92 155.235 202.475 140.226 202.475 124.871C202.455 104.3 194.275 84.5755 179.731 70.0244C165.186 55.4733 145.463 47.2829 124.886 47.2494Z" fill="white"/>
</g>
<g style="mix-blend-mode:overlay">
<path d="M124.886 187.49C112.488 187.492 100.367 183.818 90.0569 176.933C79.7468 170.048 71.7107 160.261 66.9648 148.809C62.2189 137.357 60.9765 124.755 63.3948 112.598C65.813 100.44 71.7832 89.2723 80.5503 80.5072C89.3174 71.742 100.488 65.7732 112.648 63.3555C124.808 60.9378 137.413 62.1799 148.867 66.9247C160.321 71.6696 170.111 79.7039 176.998 90.0117C183.884 100.319 187.559 112.438 187.556 124.833C187.536 141.445 180.927 157.37 169.179 169.116C157.43 180.862 141.501 187.469 124.886 187.49ZM124.886 62.7966C112.613 62.7941 100.615 66.4303 90.4094 73.2455C80.2035 80.0607 72.2484 89.7486 67.55 101.084C62.8516 112.42 61.621 124.894 64.0138 136.928C66.4066 148.963 72.3154 160.018 80.9928 168.696C89.6702 177.373 100.727 183.282 112.764 185.677C124.8 188.072 137.277 186.844 148.616 182.149C159.955 177.454 169.647 169.503 176.466 159.3C183.285 149.098 186.924 137.104 186.924 124.833C186.897 108.394 180.352 92.6361 168.723 81.0142C157.093 69.3922 141.329 62.8546 124.886 62.8345V62.7966Z" fill="white"/>
</g>
</g>
</svg>
