<svg width="348" height="309" viewBox="0 0 348 309" fill="none" xmlns="http://www.w3.org/2000/svg">
<g style="mix-blend-mode:overlay">
<g style="mix-blend-mode:overlay">
<path d="M144.651 308.581C103.967 308.53 64.2105 296.431 30.3983 273.811C-3.41389 251.191 -29.766 219.063 -45.3321 181.484C-60.8982 143.904 -64.9805 102.557 -57.0639 62.6596C-49.1474 22.7626 -29.5867 -13.8957 -0.850643 -42.6886C38.103 -79.5272 89.8934 -99.7211 143.508 -98.9763C197.122 -98.2315 248.332 -76.6068 286.246 -38.7004C324.161 -0.793991 345.791 50.4038 346.536 104.006C347.281 157.609 327.082 209.388 290.236 248.333C271.159 267.5 248.469 282.695 223.48 293.036C198.49 303.378 171.697 308.661 144.651 308.581ZM144.651 -102C104.139 -102.004 64.5361 -89.9974 30.8499 -67.4984C-2.83635 -44.9993 -29.0927 -13.0184 -44.5987 24.3999C-60.1047 61.8183 -64.1639 102.993 -56.263 142.718C-48.362 182.443 -28.8559 218.934 -0.211273 247.575C28.4333 276.216 64.9299 295.721 104.663 303.625C144.396 311.528 185.581 307.474 223.009 291.975C260.437 276.476 292.428 250.229 314.935 216.553C337.443 182.876 347.5 143.503 347.5 103C347.439 48.711 324.641 -2.10994 286.246 -40.5C247.852 -78.8901 198.952 -101.934 144.651 -102Z" fill="white"/>
</g>
<g style="mix-blend-mode:overlay">
<path d="M144.651 282.921C109.009 282.925 74.1657 272.362 44.5286 252.567C14.8915 232.772 -8.20859 204.635 -21.8502 171.714C-35.4917 138.793 -39.0621 102.567 -32.1096 67.6171C-25.1572 32.6674 -7.99429 0.563812 17.2086 -24.6334C42.4114 -49.8306 74.5221 -66.9897 109.48 -73.9406C144.437 -80.8915 180.671 -77.322 213.6 -63.6834C246.528 -50.0449 274.671 -26.95 294.471 2.68055C314.27 32.3111 324.835 67.1462 324.831 102.78C324.776 150.54 305.775 196.327 271.997 230.098C238.218 263.869 192.421 282.866 144.651 282.921ZM144.651 -76.34C109.219 -76.3276 74.5862 -65.8119 45.1317 -46.1224C15.6771 -26.4329 -7.27659 1.54621 -20.8272 34.2773C-34.3779 67.0084 -37.917 103.022 -30.997 137.763C-24.077 172.505 -7.00868 204.416 18.0498 229.46C43.1084 254.504 75.0318 271.557 109.784 278.464C144.536 285.37 180.556 281.819 213.289 268.26C246.023 254.701 274 231.743 293.684 202.288C313.368 172.833 323.874 138.204 323.874 102.78C323.819 55.2809 304.917 9.74344 271.316 -23.838C237.715 -57.4195 192.161 -76.3014 144.651 -76.34Z" fill="white"/>
</g>
<g style="mix-blend-mode:overlay">
<path d="M144.651 257.261C114.085 257.265 84.2041 248.206 58.7877 231.231C33.3713 214.256 13.5609 190.126 1.86185 161.894C-9.83716 133.662 -12.8992 102.595 -6.93711 72.6231C-0.974985 42.6509 13.7435 15.1195 35.3569 -6.48908C56.9704 -28.0977 84.5079 -42.8129 114.487 -48.7737C144.466 -54.7345 175.539 -51.6731 203.778 -39.9767C232.016 -28.2803 256.151 -8.4743 273.13 16.9364C290.109 42.3472 299.17 72.2213 299.165 102.78C299.116 143.736 282.821 183 253.854 211.96C224.888 240.92 185.615 257.211 144.651 257.261ZM144.651 -50.7425C114.294 -50.7466 84.618 -41.7513 59.3746 -24.8942C34.1311 -8.03696 14.4541 15.9252 2.83138 43.9624C-8.79129 71.9996 -11.8376 102.853 -5.9224 132.621C-0.00718117 162.389 14.6039 189.735 36.0635 211.202C57.523 232.668 84.8673 247.291 114.639 253.221C144.41 259.151 175.272 256.122 203.322 244.517C231.372 232.912 255.35 213.252 272.224 188.024C289.099 162.795 298.112 133.13 298.125 102.78C298.081 62.0973 281.898 23.0928 253.126 -5.67648C224.354 -34.4458 185.343 -50.6304 144.651 -50.68V-50.7425Z" fill="white"/>
</g>
<g style="mix-blend-mode:overlay">
<path d="M144.651 231.601C119.161 231.605 94.2424 224.051 73.0467 209.896C51.851 195.74 35.3302 175.618 25.5738 152.075C15.8174 128.531 13.2636 102.624 18.2354 77.6291C23.2072 52.6345 35.4813 29.6753 53.5053 11.6553C71.5293 -6.36469 94.4936 -18.636 119.494 -23.6067C144.494 -28.5774 170.407 -26.0242 193.956 -16.2699C217.505 -6.51569 237.631 10.0014 251.79 31.1924C265.949 52.3834 273.504 77.2963 273.5 102.78C273.445 136.929 259.852 169.663 235.7 193.809C211.548 217.956 178.807 231.546 144.651 231.601ZM144.651 -25.02C119.368 -25.0241 94.6512 -17.5323 73.6271 -3.49186C52.603 10.5485 36.2156 30.5068 26.5373 53.8589C16.8591 77.211 14.3247 102.908 19.2546 127.7C24.1846 152.493 36.3575 175.266 54.2338 193.142C72.1102 211.017 94.8871 223.191 119.684 228.124C144.481 233.057 170.184 230.527 193.543 220.855C216.902 211.182 236.867 194.802 250.914 173.785C264.961 152.768 272.459 128.058 272.459 102.78C272.42 68.9011 258.943 36.4201 234.983 12.4618C211.024 -11.4965 178.538 -24.9759 144.651 -25.02Z" fill="white"/>
</g>
<g style="mix-blend-mode:overlay">
<path d="M144.651 205.941C124.237 205.945 104.281 199.896 87.3059 188.56C70.3309 177.224 57.0997 161.11 49.2859 142.255C41.472 123.4 39.4265 102.652 43.408 82.6352C47.3895 62.6181 57.2191 44.2311 71.6537 29.7997C86.0883 15.3683 104.479 5.54084 124.501 1.56024C144.523 -2.42036 165.275 -0.375278 184.134 7.43683C202.993 15.2489 219.111 28.4771 230.45 45.4484C241.788 62.4196 247.838 82.3714 247.834 102.78C247.801 130.13 236.919 156.35 217.576 175.689C198.232 195.028 172.007 205.908 144.651 205.941ZM144.651 0.640017C124.447 0.648248 104.698 6.64568 87.9033 17.874C71.1081 29.1024 58.0201 45.0574 50.2939 63.7219C42.5678 82.3863 40.5506 102.922 44.4973 122.733C48.444 142.543 58.1774 160.739 72.4668 175.019C86.7563 189.3 104.96 199.024 124.777 202.961C144.593 206.899 165.133 204.874 183.798 197.142C202.464 189.41 218.417 176.318 229.641 159.522C240.865 142.726 246.856 122.98 246.856 102.78C246.823 75.6941 236.043 49.7272 216.882 30.5781C197.72 11.429 171.743 0.662045 144.651 0.640017Z" fill="white"/>
</g>
</g>
</svg>
