<svg width="1920" height="1003" viewBox="0 0 1920 1003" fill="none" xmlns="http://www.w3.org/2000/svg" opacity="0.4">
<g style="mix-blend-mode:overlay" opacity="0.4">
<path d="M-92.6567 1352.84C-106.292 1297.09 -108.614 1239.19 -99.4845 1182.53C-90.355 1125.88 -69.9599 1071.64 -39.5056 1023.01C-9.05128 974.383 30.8436 932.362 77.8188 899.431C124.794 866.5 177.896 843.329 233.982 831.288C347.788 806.865 466.087 829.817 580.495 851.967C701.309 875.409 826.264 899.617 944.824 867.25C1029.6 844.246 1105.54 793.673 1178.63 744.76C1265.14 687.021 1354.58 627.352 1458.25 614.192C1493.43 609.727 1529.69 610.809 1564.78 611.847C1613.48 613.295 1663.82 614.846 1711.11 601.362C1781.07 581.427 1844.22 528.437 1888.8 452.22C1926.48 387.477 1947.59 315.853 1967.48 228.24C1978.56 179.185 1988.36 127.272 1976.45 78.7089C1965.06 32.5149 1926.46 -15.3146 1874.58 -17.4118L1874.7 -19.5306C1927.57 -17.4067 1966.94 31.2962 1978.48 78.1979C1990.54 127.21 1980.69 179.43 1969.56 228.707C1949.7 316.488 1928.61 388.28 1890.71 453.27C1845.86 529.956 1782.33 583.259 1711.75 603.37C1664.13 616.945 1613.67 615.455 1564.79 613.99C1529.79 612.939 1493.61 611.845 1458.6 616.285C1355.43 629.372 1266.19 688.926 1179.88 746.55C1106.49 795.506 1030.57 846.205 945.467 869.3C928.972 873.739 912.227 877.193 895.321 879.643C791.525 894.838 684.434 874.062 580.178 853.9C466.01 831.93 347.772 809.097 234.457 833.363C178.645 845.336 125.801 868.387 79.0537 901.152C32.3062 933.917 -7.39561 975.729 -37.7023 1024.12C-68.009 1072.5 -88.3049 1126.48 -97.389 1182.85C-106.473 1239.23 -104.161 1296.85 -90.5889 1352.32L-92.6567 1352.84Z" fill="white"/>
</g>
<g style="mix-blend-mode:overlay" opacity="0.4">
<path d="M-97.2615 1321.38C-110.897 1265.64 -113.219 1207.73 -104.089 1151.08C-94.9598 1094.43 -74.5646 1040.18 -44.1103 991.555C-13.656 942.929 26.2388 900.907 73.2141 867.976C120.189 835.045 173.291 811.874 229.377 799.833C343.184 775.41 461.482 798.362 575.89 820.512C696.704 843.954 821.66 868.162 940.219 835.795C1025 812.791 1100.93 762.218 1174.03 713.305C1260.54 655.566 1349.98 595.897 1453.64 582.737C1488.83 578.272 1525.08 579.354 1560.18 580.393C1608.88 581.841 1659.22 583.391 1706.51 569.907C1776.47 549.972 1839.62 496.982 1884.19 420.765C1921.88 356.022 1942.99 284.398 1962.87 196.786C1973.95 147.73 1983.76 95.8168 1971.85 47.254C1960.45 1.06002 1921.86 -46.7694 1869.97 -48.8666L1870.09 -50.9855C1922.96 -48.8616 1962.33 -0.158636 1973.87 46.743C1985.94 95.7552 1976.09 147.975 1964.95 197.252C1945.09 285.033 1924.01 356.825 1886.11 421.815C1841.26 498.501 1777.72 551.804 1707.14 571.915C1659.53 585.49 1609.06 584 1560.19 582.535C1525.18 581.484 1489.01 580.39 1453.99 584.83C1350.83 597.917 1261.59 657.471 1175.28 715.095C1101.89 764.051 1025.97 814.75 940.862 837.845C924.367 842.284 907.622 845.738 890.717 848.188C786.92 863.384 679.83 842.607 575.573 822.445C461.405 800.475 343.167 777.642 229.852 801.908C174.04 813.881 121.196 836.932 74.449 869.697C27.7014 902.462 -12.0004 944.274 -42.3071 992.661C-72.6138 1041.05 -92.9097 1095.02 -101.994 1151.4C-111.078 1207.77 -108.765 1265.4 -95.1936 1320.86L-97.2615 1321.38Z" fill="white"/>
</g>
<g style="mix-blend-mode:overlay" opacity="0.4">
<path d="M-102.689 1284.31C-116.324 1228.57 -118.646 1170.66 -109.516 1114.01C-100.387 1057.35 -79.9919 1003.11 -49.5376 954.484C-19.0833 905.857 20.8116 863.835 67.7869 830.904C114.762 797.973 167.864 774.802 223.95 762.761C337.756 738.338 456.055 761.291 570.463 783.44C691.277 806.882 816.232 831.09 934.792 798.723C1019.57 775.719 1095.51 725.146 1168.6 676.233C1255.11 618.494 1344.55 558.826 1448.21 545.665C1483.4 541.2 1519.66 542.282 1554.75 543.321C1603.45 544.769 1653.79 546.319 1701.08 532.835C1771.04 512.9 1834.19 459.91 1878.77 383.694C1916.45 318.95 1937.56 247.326 1957.44 159.714C1968.53 110.658 1978.33 58.7449 1966.42 10.1822C1955.03 -36.0118 1916.43 -83.8413 1864.55 -85.9385L1864.67 -88.0573C1917.54 -85.9334 1956.91 -37.2305 1968.45 9.67116C1980.51 58.6834 1970.66 110.903 1959.53 160.181C1939.67 247.961 1918.58 319.753 1880.68 384.743C1835.83 461.429 1772.3 514.732 1701.71 534.843C1654.1 548.418 1603.64 546.929 1554.76 545.463C1519.75 544.412 1483.58 543.318 1448.56 547.758C1345.4 560.845 1256.16 620.399 1169.85 678.023C1096.46 726.979 1020.54 777.678 935.435 800.773C918.94 805.212 902.195 808.666 885.289 811.116C781.493 826.312 674.402 805.536 570.146 785.374C455.978 763.403 337.74 740.571 224.425 764.836C168.613 776.809 115.769 799.86 69.0217 832.625C22.2742 865.39 -17.4276 907.203 -47.7343 955.589C-78.041 1003.98 -98.3369 1057.95 -107.421 1114.33C-116.505 1170.7 -114.193 1228.33 -100.621 1283.79L-102.689 1284.31Z" fill="white"/>
</g>
</svg>
