<svg width="28" height="28" viewBox="0 0 28 28" fill="none" xmlns="http://www.w3.org/2000/svg">
<g clip-path="url(#clip0)">
<path d="M10.7916 9.3334H2.0416C0.915802 9.3334 0 8.4176 0 7.2916V2.0416C0 0.915802 0.915802 0 2.0416 0H10.7916C11.9176 0 12.8334 0.915802 12.8334 2.0416V7.2916C12.8334 8.4176 11.9176 9.3334 10.7916 9.3334ZM2.0416 1.75C1.88074 1.75 1.75 1.88074 1.75 2.0416V7.2916C1.75 7.45267 1.88074 7.5834 2.0416 7.5834H10.7916C10.9527 7.5834 11.0834 7.45267 11.0834 7.2916V2.0416C11.0834 1.88074 10.9527 1.75 10.7916 1.75H2.0416Z" fill="white"/>
<path d="M10.7916 28H2.0416C0.915802 28 0 27.0842 0 25.9584V13.7084C0 12.5824 0.915802 11.6666 2.0416 11.6666H10.7916C11.9176 11.6666 12.8334 12.5824 12.8334 13.7084V25.9584C12.8334 27.0842 11.9176 28 10.7916 28ZM2.0416 13.4166C1.88074 13.4166 1.75 13.5473 1.75 13.7084V25.9584C1.75 26.1193 1.88074 26.25 2.0416 26.25H10.7916C10.9527 26.25 11.0834 26.1193 11.0834 25.9584V13.7084C11.0834 13.5473 10.9527 13.4166 10.7916 13.4166H2.0416Z" fill="white"/>
<path d="M25.9584 28H17.2084C16.0824 28 15.1666 27.0842 15.1666 25.9584V20.7084C15.1666 19.5824 16.0824 18.6666 17.2084 18.6666H25.9584C27.0842 18.6666 28 19.5824 28 20.7084V25.9584C28 27.0842 27.0842 28 25.9584 28ZM17.2084 20.4166C17.0473 20.4166 16.9166 20.5473 16.9166 20.7084V25.9584C16.9166 26.1193 17.0473 26.25 17.2084 26.25H25.9584C26.1193 26.25 26.25 26.1193 26.25 25.9584V20.7084C26.25 20.5473 26.1193 20.4166 25.9584 20.4166H17.2084Z" fill="white"/>
<path d="M25.9584 16.3334H17.2084C16.0824 16.3334 15.1666 15.4176 15.1666 14.2916V2.0416C15.1666 0.915802 16.0824 0 17.2084 0H25.9584C27.0842 0 28 0.915802 28 2.0416V14.2916C28 15.4176 27.0842 16.3334 25.9584 16.3334ZM17.2084 1.75C17.0473 1.75 16.9166 1.88074 16.9166 2.0416V14.2916C16.9166 14.4527 17.0473 14.5834 17.2084 14.5834H25.9584C26.1193 14.5834 26.25 14.4527 26.25 14.2916V2.0416C26.25 1.88074 26.1193 1.75 25.9584 1.75H17.2084Z" fill="white"/>
</g>
<defs>
<clipPath id="clip0">
<rect width="28" height="28" fill="white"/>
</clipPath>
</defs>
</svg>
