<svg width="31" height="31" viewBox="0 0 31 31" fill="none" xmlns="http://www.w3.org/2000/svg">
<path d="M29.6341 18.9391C29.5434 18.6917 29.403 18.4656 29.2213 18.2748C29.0397 18.084 28.8207 17.9325 28.5781 17.8298V4.35937C28.577 3.97434 28.4235 3.6054 28.1512 3.33313C27.879 3.06087 27.51 2.9074 27.125 2.90625H11.625C11.24 2.9074 10.871 3.06087 10.5988 3.33313C10.3265 3.6054 10.173 3.97434 10.1719 4.35937V17.9364C9.62231 18.1862 9.09695 18.4862 8.6025 18.8325L7.08156 19.8981L6.52453 19.1037C6.45062 18.9993 6.33862 18.928 6.21268 18.9054C6.08673 18.8827 5.95692 18.9105 5.85125 18.9827L1.08984 22.3152C0.985044 22.3899 0.91369 22.5028 0.891058 22.6295C0.868425 22.7563 0.896312 22.8868 0.968748 22.9933L5.97234 30.133C6.04568 30.2382 6.15774 30.31 6.28395 30.3327C6.41016 30.3554 6.54023 30.3271 6.64562 30.2541L11.407 26.9216C11.5116 26.8466 11.5828 26.7338 11.6054 26.6071C11.6281 26.4804 11.6003 26.35 11.5281 26.2434L11.252 25.8511C12.1867 25.2126 13.3349 24.9672 14.4489 25.1681L15.3111 25.3134C16.4003 25.5069 17.5214 25.41 18.5613 25.0325L28.4764 21.4239C28.7156 21.3369 28.9354 21.2035 29.1231 21.0315C29.3107 20.8595 29.4627 20.6522 29.5702 20.4214C29.6777 20.1906 29.7387 19.9409 29.7496 19.6866C29.7606 19.4322 29.7213 19.1782 29.6341 18.9391ZM21.7969 3.875H27.125C27.2535 3.875 27.3767 3.92603 27.4675 4.01687C27.5583 4.10771 27.6094 4.23091 27.6094 4.35937V5.8125H21.7969V3.875ZM17.9219 3.875H20.8281V8.03578L19.7189 6.92172C19.6275 6.83097 19.5038 6.78005 19.375 6.78005C19.2462 6.78005 19.1225 6.83097 19.0311 6.92172L17.9219 8.03578V3.875ZM11.1406 4.35937C11.1406 4.23091 11.1917 4.10771 11.2825 4.01687C11.3733 3.92603 11.4965 3.875 11.625 3.875H16.9531V5.8125H11.1406V4.35937ZM11.1406 6.78125H16.9531V9.20312C16.9528 9.29894 16.9812 9.39266 17.0347 9.47212C17.0883 9.55158 17.1645 9.61312 17.2534 9.64875C17.3416 9.68584 17.4389 9.69598 17.5328 9.67787C17.6268 9.65977 17.7133 9.61424 17.7814 9.54703L19.375 7.94859L20.9686 9.54703C21.0602 9.63738 21.1838 9.68787 21.3125 9.6875C21.376 9.68917 21.4391 9.6759 21.4966 9.64875C21.5855 9.61312 21.6617 9.55158 21.7153 9.47212C21.7688 9.39266 21.7972 9.29894 21.7969 9.20312V6.78125H27.6094V17.6845C27.4542 17.6977 27.3012 17.7302 27.1541 17.7814L25.4394 18.4062H22.0342C21.7787 18.1881 21.4692 18.0425 21.1381 17.9848L16.2702 17.1275C14.6973 16.8493 13.0811 16.9456 11.5523 17.4084L11.4652 17.4375C11.3537 17.4666 11.2472 17.5102 11.1406 17.5489V6.78125ZM6.48578 29.1836L2.04406 22.8334L6.01109 20.0531L10.4528 26.4033L6.48578 29.1836ZM28.7719 19.7722C28.742 19.9397 28.6685 20.0964 28.5588 20.2265C28.4491 20.3566 28.3071 20.4555 28.147 20.5133L18.2319 24.1219C17.3516 24.4417 16.4026 24.5235 15.4806 24.3592L14.6136 24.2139C13.2474 23.9679 11.8393 24.2708 10.695 25.0567L7.63859 20.6877L9.15953 19.6269C9.94424 19.0726 10.8126 18.6475 11.7316 18.3675L11.8187 18.3433C13.2074 17.922 14.6753 17.8308 16.1055 18.0769L20.9686 18.9342C21.2229 18.9811 21.4488 19.1253 21.5983 19.3362C21.6831 19.4609 21.7378 19.6035 21.7581 19.7528C21.7829 19.8884 21.7746 20.028 21.7339 20.1597C21.6671 20.3914 21.5166 20.59 21.3117 20.7171C21.1068 20.8442 20.8619 20.8907 20.6247 20.8475L15.3886 19.9223L15.2239 20.8717L20.4552 21.7969C20.5683 21.8201 20.6836 21.8315 20.7991 21.8308C21.2161 21.8304 21.622 21.696 21.9569 21.4475C22.2917 21.1989 22.5379 20.8494 22.6591 20.4503L27.4834 18.692C27.725 18.6048 27.9912 18.617 28.2238 18.726C28.4563 18.835 28.636 19.0318 28.7234 19.2733C28.7854 19.4319 28.8022 19.6046 28.7719 19.7722Z" fill="#51015A"/>
</svg>
