<svg width="28" height="28" viewBox="0 0 28 28" fill="none" xmlns="http://www.w3.org/2000/svg">
<g clip-path="url(#clip0)">
<path d="M17.2667 16.3333H16.7533C16.5603 16.3337 16.3875 16.2132 16.3212 16.0319C16.2643 15.8825 16.2031 15.7365 16.1373 15.5918C16.0556 15.4159 16.0929 15.2076 16.2307 15.071L16.5965 14.7047C17.1397 14.1568 17.1387 13.2731 16.5942 12.7265L15.2754 11.4077C14.7281 10.8635 13.8441 10.8635 13.2967 11.4077L12.9309 11.7731C12.794 11.9103 12.5861 11.9476 12.4101 11.8664C12.2654 11.8006 12.1193 11.7395 11.9695 11.6797C11.7872 11.6139 11.666 11.4405 11.6667 11.2467V10.7333C11.6667 9.96014 11.0399 9.33334 10.2667 9.33334H8.4C7.62679 9.33334 7 9.96014 7 10.7333V11.2467C7.00035 11.4398 6.87989 11.6125 6.69853 11.6788C6.5492 11.7357 6.40313 11.7969 6.25847 11.8627C6.08248 11.9441 5.87446 11.9068 5.73767 11.7693L5.37133 11.4035C4.82405 10.8597 3.94042 10.8597 3.39313 11.4035L2.07433 12.7265C1.5302 13.2738 1.5302 14.1578 2.07433 14.7051L2.43973 15.071C2.57752 15.2076 2.61485 15.4159 2.53307 15.5918C2.46727 15.7365 2.40613 15.8825 2.34873 16.0323C2.28194 16.2148 2.10758 16.3353 1.91333 16.3333H1.4C0.626792 16.3333 0 16.9601 0 17.7333V19.6C0 20.3732 0.626792 21 1.4 21H1.91333C2.10642 20.9997 2.27914 21.1201 2.34547 21.3015C2.4024 21.4508 2.46353 21.5969 2.52933 21.7415C2.61112 21.9175 2.57378 22.1258 2.436 22.2623L2.07013 22.6287C1.52635 23.176 1.52635 24.0596 2.07013 24.6069L3.38893 25.9257C3.93628 26.4698 4.82026 26.4698 5.3676 25.9257L5.73347 25.5603C5.87032 25.423 6.07828 25.3857 6.25427 25.4669C6.39893 25.5327 6.545 25.5939 6.6948 25.6536C6.87803 25.7187 7.00035 25.8923 7 26.0867V26.6C7 27.3732 7.62679 28 8.4 28H10.2667C11.0399 28 11.6667 27.3732 11.6667 26.6V26.0867C11.6663 25.8936 11.7868 25.7209 11.9681 25.6545C12.1175 25.5976 12.2635 25.5365 12.4082 25.4707C12.5842 25.3893 12.7922 25.4266 12.929 25.564L13.2953 25.9299C13.8434 26.4728 14.7268 26.4717 15.2735 25.9275L16.5923 24.6087C17.1365 24.0614 17.1365 23.1774 16.5923 22.6301L16.2269 22.2642C16.0892 22.1277 16.0518 21.9193 16.1336 21.7434C16.1994 21.5987 16.2605 21.4527 16.3203 21.3029C16.3861 21.1206 16.5595 20.9993 16.7533 21H17.2667C18.0399 21 18.6667 20.3732 18.6667 19.6V17.7333C18.6667 16.9601 18.0399 16.3333 17.2667 16.3333ZM17.7333 19.6C17.7333 19.8577 17.5244 20.0667 17.2667 20.0667H16.7533C16.1732 20.0688 15.654 20.4274 15.4467 20.9692C15.3972 21.0999 15.3437 21.2285 15.2861 21.3551C15.0462 21.8848 15.1575 22.5076 15.5661 22.9213L15.9311 23.2867C16.1134 23.4688 16.1136 23.7643 15.9314 23.9467C15.9313 23.9468 15.9312 23.9469 15.9311 23.947L14.6123 25.2658C14.43 25.448 14.1346 25.448 13.9524 25.2658L13.5865 24.9004C13.173 24.4914 12.55 24.3801 12.0204 24.6204C11.8939 24.6778 11.7651 24.7315 11.6354 24.7809C11.094 24.9883 10.7357 25.507 10.7333 26.0867V26.6C10.7333 26.8577 10.5244 27.0667 10.2667 27.0667H8.4C8.14228 27.0667 7.93333 26.8577 7.93333 26.6V26.0867C7.93118 25.5065 7.5726 24.9874 7.0308 24.78C6.90013 24.7305 6.77151 24.6771 6.64487 24.6195C6.1152 24.3797 5.49249 24.491 5.07873 24.8995L4.71333 25.2644C4.53122 25.4468 4.2357 25.4469 4.05335 25.2648C4.05323 25.2646 4.05312 25.2645 4.053 25.2644L2.7342 23.947C2.55203 23.7648 2.55203 23.4694 2.7342 23.2871L3.0996 22.9213C3.50823 22.5076 3.61953 21.8848 3.3796 21.3551C3.3222 21.2287 3.26853 21.0999 3.21907 20.9701C3.01222 20.4282 2.4934 20.0692 1.91333 20.0667H1.4C1.14228 20.0667 0.933333 19.8577 0.933333 19.6V17.7333C0.933333 17.4756 1.14228 17.2667 1.4 17.2667H1.91333C2.49346 17.2645 3.01263 16.9059 3.22 16.3641C3.26947 16.2335 3.32296 16.1049 3.38053 15.9782C3.62046 15.4485 3.5091 14.8258 3.10053 14.4121L2.73373 14.0467C2.55138 13.8646 2.55121 13.569 2.73338 13.3867C2.7335 13.3866 2.73362 13.3865 2.73373 13.3863L4.05253 12.0675C4.23477 11.8854 4.53017 11.8854 4.7124 12.0675L5.07827 12.4329C5.49179 12.8419 6.11479 12.9533 6.6444 12.7129C6.77087 12.6555 6.89967 12.6019 7.0294 12.5524C7.57155 12.3457 7.93071 11.8269 7.93333 11.2467V10.7333C7.93333 10.4756 8.14228 10.2667 8.4 10.2667H10.2667C10.5244 10.2667 10.7333 10.4756 10.7333 10.7333V11.2467C10.7355 11.8268 11.0941 12.346 11.6359 12.5533C11.7665 12.6028 11.8952 12.6563 12.0218 12.7139C12.5514 12.9542 13.1744 12.8429 13.5879 12.4339L13.9533 12.0689C14.1363 11.888 14.4307 11.888 14.6137 12.0689L15.9325 13.3877C16.1146 13.57 16.1146 13.8654 15.9325 14.0476L15.5671 14.4135C15.1585 14.8272 15.0471 15.4499 15.2871 15.9796C15.3445 16.1061 15.3981 16.2349 15.4476 16.3646C15.6549 16.906 16.1736 17.2643 16.7533 17.2667H17.2667C17.5244 17.2667 17.7333 17.4756 17.7333 17.7333V19.6Z" fill="#51015A"/>
<path d="M13.524 18.48C13.5193 18.368 13.5114 18.2564 13.4979 18.1454C13.4829 18.0259 13.4652 17.9074 13.4405 17.7912C13.4241 17.7151 13.4027 17.64 13.3821 17.5644C13.356 17.4682 13.3266 17.3735 13.2939 17.2802C13.2711 17.2153 13.2473 17.1509 13.223 17.087C13.1629 16.9375 13.0942 16.7916 13.0172 16.6502C13.0111 16.6394 13.0074 16.6278 13.0013 16.617C12.8799 16.401 12.7394 16.1962 12.5813 16.0052C12.5678 15.9884 12.5524 15.9726 12.5384 15.9562C12.474 15.8802 12.4077 15.8064 12.3382 15.736C12.3018 15.6982 12.2635 15.6627 12.2253 15.6263C12.1786 15.5829 12.1319 15.54 12.0853 15.4989C12.0286 15.4497 11.9709 15.4021 11.9121 15.3561L11.8356 15.2992C11.1135 14.7583 10.2355 14.4662 9.33334 14.4666C9.28667 14.4666 9.24001 14.4736 9.19334 14.4755C9.09394 14.4783 8.99407 14.4839 8.89374 14.4942C8.84101 14.4998 8.78781 14.5058 8.73507 14.5133C8.58294 14.5333 8.43197 14.5616 8.28287 14.5978C6.03582 15.1784 4.68493 17.4708 5.26558 19.7179C5.64825 21.1986 6.80512 22.3545 8.28614 22.736C8.29361 22.736 8.30154 22.7383 8.30947 22.7402C8.47065 22.7804 8.63392 22.8116 8.79854 22.8335C8.90727 22.847 9.01601 22.8498 9.12521 22.855C9.19801 22.8587 9.26521 22.8694 9.34127 22.8694C9.47427 22.8694 9.61241 22.8606 9.75334 22.8466C9.76827 22.8466 9.78321 22.8424 9.80001 22.8405C9.91341 22.8279 10.0282 22.8111 10.1453 22.7878C10.192 22.7789 10.2354 22.7672 10.2802 22.757C10.3623 22.7378 10.444 22.7178 10.528 22.693C10.5933 22.6734 10.6568 22.6506 10.7207 22.6282C10.7847 22.6058 10.8509 22.5815 10.9172 22.5563C10.9835 22.5311 11.039 22.5022 11.0992 22.4742C11.1776 22.4382 11.2555 22.4028 11.3325 22.3608H11.3353C11.7709 22.1276 12.1731 21.8371 12.5314 21.497C12.6282 21.4067 12.7124 21.3037 12.7815 21.1908C13.1458 20.6069 13.3851 19.9539 13.4843 19.2728C13.4974 19.1828 13.5091 19.0927 13.5161 19.0008C13.5226 18.9163 13.5273 18.8323 13.5291 18.7483C13.5291 18.7217 13.5329 18.6965 13.5329 18.6699C13.5333 18.6041 13.5268 18.5434 13.524 18.48ZM12.5939 18.7856C12.5939 18.8244 12.5907 18.8631 12.5883 18.9014C12.5799 19.0143 12.5655 19.1272 12.5463 19.2406C12.3719 20.2109 11.7695 21.0509 10.9065 21.5273C10.8486 21.5576 10.7917 21.5861 10.7347 21.6122L10.696 21.6309C10.4249 21.754 10.1387 21.8406 9.84481 21.8885C9.82427 21.8918 9.80327 21.8955 9.78227 21.8983C9.72394 21.9067 9.66654 21.9137 9.60961 21.9188C9.53447 21.9254 9.45887 21.9291 9.38187 21.9305C9.34921 21.9305 9.31701 21.9305 9.28434 21.9305C9.17392 21.9292 9.06367 21.9224 8.95394 21.91L8.89794 21.9034C8.76961 21.8866 8.64232 21.8627 8.51667 21.8316C6.76889 21.3842 5.71469 19.6047 6.16199 17.8569C6.45757 16.702 7.35882 15.7999 8.51341 15.5031V15.5026C8.78151 15.435 9.05684 15.4005 9.33334 15.4C9.46675 15.4007 9.60004 15.4098 9.73234 15.427C9.76781 15.4312 9.80281 15.4378 9.83781 15.4429C9.93861 15.4588 10.0385 15.4788 10.1369 15.504C10.1691 15.5124 10.2013 15.5199 10.2331 15.5288C10.4812 15.6004 10.7201 15.701 10.9447 15.8284C10.9807 15.8494 11.0157 15.8713 11.0511 15.8932C11.1249 15.9399 11.1963 15.9866 11.2667 16.0398C11.3045 16.0673 11.3428 16.0944 11.3792 16.1238C11.4708 16.1969 11.5585 16.2748 11.6419 16.3571C11.6751 16.3907 11.7054 16.4276 11.7376 16.4626C11.7913 16.5209 11.8435 16.5806 11.8935 16.6436C11.928 16.687 11.9611 16.7318 11.9938 16.7771C12.0405 16.8443 12.0871 16.9143 12.1291 16.9852C12.1525 17.024 12.1758 17.0618 12.1996 17.1014C12.2598 17.2122 12.3134 17.3264 12.3601 17.4435C12.3788 17.4902 12.3947 17.5368 12.4115 17.5835C12.4418 17.6694 12.4679 17.7562 12.4908 17.8439C12.5025 17.8906 12.5155 17.9321 12.5253 17.9774C12.5526 18.1035 12.5724 18.2311 12.5846 18.3596C12.5874 18.3936 12.5874 18.4282 12.5897 18.4622C12.5963 18.5696 12.5981 18.6774 12.5939 18.7856Z" fill="#51015A"/>
<path d="M26.6 9.8H25.1323C24.9366 9.80198 24.7616 9.67872 24.6974 9.49387C24.5527 9.06039 24.3776 8.63759 24.1733 8.22873C24.0867 8.05216 24.1228 7.83988 24.2629 7.70187L25.3036 6.6598C25.8498 6.11316 25.8498 5.22731 25.3036 4.68067L23.3193 2.69967C22.7727 2.15343 21.8868 2.15343 21.3402 2.69967L20.3 3.7394C20.1622 3.87952 19.9502 3.9158 19.7736 3.82947C19.3647 3.62419 18.9418 3.44814 18.508 3.3026C18.3224 3.23907 18.1983 3.06384 18.2 2.86767V1.4C18.2 0.626792 17.5732 0 16.8 0H14C13.2268 0 12.6 0.626792 12.6 1.4V2.86767C12.602 3.06337 12.4788 3.23843 12.2939 3.3026C11.8603 3.44808 11.4375 3.62402 11.0287 3.829C10.8522 3.91597 10.6398 3.87987 10.5019 3.7394L9.4598 2.69873C8.91252 2.15407 8.02795 2.15407 7.48067 2.69873L5.50013 4.67927C4.95361 5.22597 4.95361 6.11217 5.50013 6.65887L7.03033 8.19187C7.21543 8.37118 7.51088 8.36652 7.6902 8.18137C7.86514 8.00077 7.86555 7.714 7.69113 7.53293L6.16 6.0004C5.97783 5.81817 5.97783 5.52277 6.16 5.34053L8.14053 3.36C8.32277 3.17782 8.61817 3.17782 8.8004 3.36L9.84293 4.40067C10.2647 4.82498 10.9111 4.93103 11.4464 4.66387C11.8161 4.47878 12.1983 4.31987 12.5902 4.18833C13.1559 3.99682 13.5358 3.46494 13.5333 2.86767V1.4C13.5333 1.14228 13.7423 0.933333 14 0.933333H16.8C17.0577 0.933333 17.2667 1.14228 17.2667 1.4V2.86767C17.2643 3.46482 17.6441 3.99653 18.2098 4.18787C18.6019 4.31947 18.9843 4.47848 19.3541 4.66387C19.8895 4.92963 20.535 4.82347 20.9571 4.4002L21.9996 3.36C22.1818 3.17782 22.4772 3.17782 22.6595 3.36L24.64 5.341C24.8219 5.52317 24.8219 5.81822 24.64 6.0004L23.5993 7.04293C23.1754 7.46497 23.0694 8.11102 23.3361 8.6464C23.5212 9.01606 23.6801 9.39826 23.8117 9.7902C24.0031 10.356 24.535 10.7359 25.1323 10.7333H26.6C26.8577 10.7333 27.0667 10.9423 27.0667 11.2V14C27.0667 14.2577 26.8577 14.4667 26.6 14.4667H25.1323C24.5352 14.4643 24.0035 14.8441 23.8121 15.4098C23.6806 15.8019 23.5215 16.1843 23.3361 16.5541C23.0699 17.0894 23.1761 17.7351 23.5998 18.1571L24.6405 19.1996C24.8226 19.3818 24.8226 19.6772 24.6405 19.8595L22.659 21.84C22.4768 22.0219 22.1818 22.0219 21.9996 21.84L20.4661 20.3098C20.2868 20.1246 19.9914 20.12 19.8063 20.2993C19.6211 20.4786 19.6165 20.7741 19.7958 20.9592C19.7995 20.963 19.8034 20.9669 19.8072 20.9706L21.3402 22.5008C21.8868 23.047 22.7727 23.047 23.3193 22.5008L25.2999 20.5207C25.8464 19.974 25.8464 19.0878 25.2999 18.5411L24.2606 17.5C24.1206 17.3621 24.0844 17.1502 24.1705 16.9736C24.3758 16.5647 24.5519 16.1418 24.6974 15.708C24.7609 15.5224 24.9362 15.3982 25.1323 15.4H26.6C27.3732 15.4 28 14.7732 28 14V11.2C28 10.4268 27.3732 9.8 26.6 9.8Z" fill="#51015A"/>
<path d="M19.6896 8.31039C17.3191 5.9448 13.481 5.9448 11.1104 8.31039C10.9314 8.49577 10.9365 8.79123 11.1219 8.97025C11.3027 9.1449 11.5894 9.1449 11.7703 8.97025C13.7615 6.95215 17.0116 6.9304 19.0297 8.9216C21.0478 10.9128 21.0696 14.163 19.0784 16.1811C19.0623 16.1974 19.0461 16.2136 19.0297 16.2297C18.8444 16.4088 18.8392 16.7042 19.0183 16.8896C19.1974 17.075 19.4928 17.0801 19.6782 16.901C19.682 16.8973 19.6859 16.8934 19.6896 16.8896C22.0552 14.519 22.0552 10.6809 19.6896 8.31039Z" fill="#51015A"/>
</g>
<defs>
<clipPath id="clip0">
<rect width="28" height="28" fill="white"/>
</clipPath>
</defs>
</svg>
