<svg width="29" height="29" viewBox="0 0 29 29" fill="none" xmlns="http://www.w3.org/2000/svg">
<g clip-path="url(#clip0)">
<path d="M27.7672 0.725922H7.51058C6.83004 0.726715 6.27857 1.27819 6.27778 1.95873V7.546L5.35147 6.15654C4.92747 5.51697 4.07476 5.32508 3.41768 5.72144L1.51194 6.86722C0.887832 7.23344 0.430006 7.82729 0.234661 8.52403C-0.460547 11.0554 0.0552935 15.4166 6.45669 21.819C11.5474 26.9044 15.343 28.274 17.9589 28.274C18.5646 28.2768 19.1679 28.1981 19.7526 28.0401C20.449 27.8447 21.0429 27.3875 21.4098 26.7642L22.5541 24.8565C22.9489 24.1999 22.7572 23.349 22.119 22.9251L17.5557 19.8832C16.9297 19.4692 16.0907 19.6053 15.6277 20.196L14.2992 21.904C14.1603 22.0868 13.9084 22.14 13.7074 22.0292L13.4545 21.89C12.6225 21.4365 11.587 20.8718 9.49559 18.7804C9.26931 18.5541 9.06433 18.3424 8.87193 18.1398H27.7672C28.446 18.1403 28.9973 17.5916 29 16.9128V1.95873C28.9992 1.27819 28.4477 0.726715 27.7672 0.725922ZM12.9919 22.739L13.2375 22.8739C13.8549 23.2191 14.632 23.0589 15.0625 22.4978L16.3911 20.7897C16.5421 20.5973 16.8154 20.553 17.0195 20.6877L21.5828 23.7296C21.7901 23.8678 21.8525 24.1444 21.7245 24.3581L20.5802 26.2658C20.3412 26.6756 19.9529 26.977 19.4968 27.107C17.2115 27.7355 13.2119 27.2037 7.14165 21.133C1.07139 15.0623 0.541616 11.0631 1.16861 8.77976C1.29852 8.32364 1.59975 7.93544 2.00931 7.69636L3.91704 6.55154C4.1308 6.42384 4.40721 6.4861 4.54551 6.69318L7.58882 11.2565C7.72377 11.4605 7.67941 11.7341 7.48678 11.8849L5.77825 13.2139C5.2172 13.6444 5.05698 14.4213 5.40212 15.0385L5.53747 15.2841C6.02091 16.1708 6.62184 17.274 8.81239 19.464C11.003 21.6541 12.1058 22.2555 12.9919 22.739ZM28.0331 16.9129C28.0315 17.0583 27.9126 17.175 27.7672 17.1739H7.99979C7.37189 16.4559 6.83044 15.6667 6.3865 14.8224L6.24724 14.5686C6.1362 14.3681 6.18934 14.1164 6.37199 13.9778L8.08053 12.6488C8.67143 12.186 8.80757 11.3468 8.39331 10.7208L7.24464 8.99681V1.95873C7.24385 1.88796 7.27161 1.81986 7.32164 1.76984C7.37166 1.71981 7.43976 1.69205 7.51052 1.69285H27.7672C27.838 1.69205 27.9061 1.71981 27.9561 1.76984C28.0061 1.81986 28.0339 1.88796 28.0331 1.95873V16.9129H28.0331Z" fill="#51015A"/>
<path d="M26.1022 2.96434L18.0222 9.0921C17.7936 9.25821 17.4841 9.25821 17.2555 9.0921L9.17849 2.96434C8.9657 2.80293 8.66231 2.84463 8.50096 3.05742C8.33955 3.27022 8.38125 3.5736 8.59405 3.73496L16.672 9.86221C17.2467 10.2868 18.0311 10.2868 18.6058 9.86221L26.6862 3.73496C26.7885 3.65745 26.8557 3.54244 26.8731 3.41531C26.8905 3.28818 26.8567 3.15935 26.779 3.0572C26.6177 2.8448 26.3148 2.80327 26.1022 2.96434Z" fill="#51015A"/>
<path d="M13.513 9.90284L8.56058 15.2063C8.3785 15.4016 8.3892 15.7076 8.58449 15.8897C8.77978 16.0718 9.08577 16.0611 9.26786 15.8658L14.2204 10.5599C14.384 10.3625 14.365 10.0717 14.1772 9.89717C13.9893 9.72262 13.6979 9.72511 13.513 9.90284Z" fill="#51015A"/>
<path d="M21.7966 9.90281C21.6145 9.70752 21.3086 9.69676 21.1133 9.87891C20.918 10.061 20.9072 10.3669 21.0894 10.5623L26.0404 15.8658C26.2225 16.0611 26.5284 16.0718 26.7238 15.8897C26.9191 15.7076 26.9298 15.4016 26.7477 15.2063L21.7966 9.90281Z" fill="#51015A"/>
</g>
<defs>
<clipPath id="clip0">
<rect width="29" height="29" fill="white"/>
</clipPath>
</defs>
</svg>
