<svg width="28" height="28" viewBox="0 0 28 28" fill="none" xmlns="http://www.w3.org/2000/svg">
<path d="M17.1668 20.6008C19.4254 16.8547 22.2801 11.5883 22.2801 8.88125C22.2801 4.31484 18.5668 0.601562 14.0004 0.601562C9.43398 0.601562 5.7207 4.31484 5.7207 8.88125C5.7207 11.5883 8.57539 16.8547 10.834 20.6008C8.1543 20.8031 2.05664 21.5305 2.05664 23.9422C2.05664 26.3156 8.24726 27.3984 14.0059 27.3984C19.759 27.3984 25.9551 26.3156 25.9551 23.9422C25.9496 21.5305 19.8465 20.8031 17.1668 20.6008ZM6.86367 8.88125C6.86367 4.94375 10.0684 1.73906 14.0004 1.73906C17.9379 1.73906 21.1426 4.94375 21.1426 8.88125C21.1426 12.3211 15.6629 20.9508 14.0004 23.4883C12.3379 20.9508 6.86367 12.3211 6.86367 8.88125ZM14.0004 26.2555C7.00586 26.2555 3.19414 24.7242 3.19414 23.9367C3.19414 23.3297 5.70976 22.0227 11.5066 21.6891C12.5949 23.4445 13.4207 24.6859 13.5301 24.8336C13.6777 25.0305 14.1098 25.2656 14.4762 24.8336C14.591 24.6969 15.4113 23.4445 16.4996 21.6891C22.2965 22.0227 24.8121 23.3242 24.8121 23.9367C24.8066 24.7297 20.9949 26.2555 14.0004 26.2555Z" fill="#131313"/>
<path d="M17.6043 8.88125C17.6043 6.89062 15.991 5.27734 14.0004 5.27734C12.0098 5.27734 10.3965 6.89062 10.3965 8.88125C10.3965 10.8719 12.0098 12.4852 14.0004 12.4852C15.991 12.4852 17.6043 10.8719 17.6043 8.88125ZM11.534 8.88125C11.534 7.51953 12.6387 6.41484 14.0004 6.41484C15.3621 6.41484 16.4668 7.51953 16.4668 8.88125C16.4668 10.243 15.3621 11.3477 14.0004 11.3477C12.6387 11.3477 11.534 10.243 11.534 8.88125Z" fill="#131313"/>
</svg>
