<svg width="21" height="22" viewBox="0 0 21 22" fill="none" xmlns="http://www.w3.org/2000/svg">
<g clip-path="url(#clip0)">
<path d="M19.9231 3.79272H1.07695C0.4846 3.79272 0 4.26965 0 4.85258V16.5112C0 17.0941 0.4846 17.5711 1.07695 17.5711H19.9231C20.5154 17.5711 21 17.0941 21 16.5112V4.85258C21 4.26965 20.5154 3.79272 19.9231 3.79272ZM19.5189 4.58758L11.1195 10.7879C10.9685 10.901 10.7367 10.9718 10.5 10.9707C10.2633 10.9718 10.0315 10.901 9.88046 10.7879L1.48103 4.58758H19.5189ZM15.0322 11.197L19.6092 16.7614C19.6138 16.7669 19.6194 16.7712 19.6243 16.7762H1.37575C1.38059 16.7709 1.38625 16.7669 1.39084 16.7614L5.96777 11.197C6.10801 11.0264 6.08143 10.7762 5.90773 10.6379C5.73435 10.4999 5.48018 10.526 5.33991 10.6967L0.80768 16.2067V5.0844L9.39611 11.4237C9.71894 11.6604 10.1117 11.7645 10.4999 11.7656C10.8876 11.7648 11.2807 11.6606 11.6037 11.4237L20.1922 5.0844V16.2067L15.6601 10.6967C15.5198 10.5261 15.2654 10.4998 15.0922 10.6379C14.9186 10.7759 14.8919 11.0264 15.0322 11.197Z" fill="#131313"/>
</g>
<defs>
<clipPath id="clip0">
<rect width="21" height="20.6675" fill="white" transform="translate(0 0.348145)"/>
</clipPath>
</defs>
</svg>
