<svg width="21" height="21" viewBox="0 0 21 21" fill="none" xmlns="http://www.w3.org/2000/svg">
<g clip-path="url(#clip0)">
<path d="M20.3052 3.69891L20.3045 3.69713C20.0479 3.01836 19.6537 2.41148 19.1374 1.90707L19.1347 1.90437L19.1347 1.90434C18.6297 1.39154 18.0184 0.993202 17.3483 0.741L17.3467 0.74037C16.7001 0.490397 15.9586 0.313836 14.8625 0.265508L14.8618 0.265478C13.7425 0.21234 13.3893 0.2 10.5392 0.2C7.68909 0.2 7.33559 0.212337 6.21998 0.261341L20.3052 3.69891ZM20.3052 3.69891C20.5549 4.34119 20.7315 5.08652 20.7799 6.18283L20.3052 3.69891ZM3.73439 0.736752L3.73438 0.736743C3.05547 0.993265 2.44859 1.38753 1.94418 1.90379L1.94148 1.90655L1.94145 1.90653C1.42867 2.41145 1.03047 3.02278 0.778095 3.69291L0.777484 3.69453L0.777477 3.69453C0.527504 4.34123 0.350945 5.08259 0.302617 6.1787L0.302587 6.17937C0.24945 7.29876 0.237109 7.6519 0.237109 10.5021C0.237109 13.3521 0.249446 13.7056 0.298451 14.8212L3.73439 0.736752ZM3.73439 0.736752L3.73616 0.736065M3.73439 0.736752L3.73616 0.736065M3.73616 0.736065C4.37831 0.486449 5.12365 0.309681 6.21994 0.261343L3.73616 0.736065ZM0.773325 17.3052L0.774016 17.307C1.03033 17.9852 1.4285 18.5925 1.94145 19.0976L1.94363 19.0998C2.44858 19.6126 3.0599 20.0109 3.72998 20.2631L3.73164 20.2637C4.37834 20.5137 5.11969 20.6903 6.21597 20.7386C7.33141 20.7878 7.68503 20.7999 10.5352 20.7999C13.3853 20.7999 13.7387 20.7878 14.8543 20.7386C15.9507 20.6903 16.696 20.5136 17.3381 20.2639L17.3385 20.2637C18.6973 19.7384 19.7715 18.6641 20.2968 17.3055C20.5467 16.6588 20.7234 15.9173 20.7717 14.8213C20.7717 14.8213 20.7717 14.8212 20.7717 14.8212L20.9715 14.83L0.773325 17.3052ZM0.773325 17.3052C0.523557 16.6629 0.346791 15.9176 0.298452 14.8213L0.773325 17.3052ZM19.2884 14.7568C19.2422 15.8044 19.0653 16.3797 18.9141 16.7686L19.2884 14.7569C19.2884 14.7568 19.2884 14.7568 19.2884 14.7568ZM19.2884 14.7568C19.3378 13.6449 19.3501 13.3132 19.3501 10.5102C19.3501 7.70718 19.3378 7.37156 19.2884 6.25961M19.2884 14.7568L16.8088 2.14314M16.8088 2.14314C17.2898 2.32102 17.7286 2.60303 18.0858 2.97264C18.4541 3.33295 18.7362 3.76702 18.9145 4.24884C19.0657 4.63785 19.2423 5.217 19.2884 6.25961M16.8088 2.14314C16.4199 1.99204 15.8447 1.81546 14.7982 1.76933L16.8088 2.14314ZM19.2884 6.25961L19.0886 6.26844L19.2884 6.25957C19.2884 6.25958 19.2884 6.25959 19.2884 6.25961ZM3.00486 18.0478C3.36201 18.4174 3.80082 18.6994 4.28179 18.8774L6.29668 1.76933C5.25434 1.81545 4.67506 1.992 4.28605 2.14315C3.80435 2.32122 3.37038 2.6032 3.01028 2.97137C2.63615 3.32895 2.35411 3.76783 2.17611 4.2489C2.02499 4.6378 1.84839 5.21295 1.80243 6.25959C1.75288 7.36741 1.7407 7.70727 1.7407 10.5102C1.7407 13.3132 1.75288 13.649 1.80243 14.761C1.84839 15.8034 2.02495 16.3827 2.1761 16.7717C2.35439 17.2534 2.6365 17.6875 3.00486 18.0478ZM10.5473 1.7076C7.74445 1.7076 7.40867 1.71994 6.29671 1.76933L14.7981 1.76933C13.6902 1.71994 13.3545 1.7076 10.5473 1.7076Z" fill="#131313" stroke="#F2F2F2" stroke-width="0.4"/>
<path d="M5.34453 10.5021C5.34453 7.63414 7.67137 5.30745 10.5391 5.30745C13.4071 5.30745 15.7337 7.63414 15.7337 10.5021C15.7337 13.37 13.4071 15.6967 10.5391 15.6967C7.67137 15.6967 5.34453 13.37 5.34453 10.5021ZM6.83979 10.5021C6.83979 12.5448 8.49657 14.2014 10.5391 14.2014C12.5819 14.2014 14.2385 12.5448 14.2385 10.5021C14.2385 8.45932 12.5819 6.80271 10.5391 6.80271C8.49657 6.80271 6.83979 8.45932 6.83979 10.5021Z" fill="#131313" stroke="#F2F2F2" stroke-width="0.4"/>
<path d="M17.2066 4.89413C17.2066 5.47913 16.7323 5.95352 16.1471 5.95352C15.5621 5.95352 15.0877 5.47915 15.0877 4.89413C15.0877 4.30896 15.5621 3.83474 16.1471 3.83474C16.7323 3.83474 17.2066 4.30898 17.2066 4.89413Z" fill="#131313" stroke="#F2F2F2" stroke-width="0.4"/>
</g>
<defs>
<clipPath id="clip0">
<rect width="21" height="21" fill="white"/>
</clipPath>
</defs>
</svg>
