<svg width="16" height="12" viewBox="0 0 16 12" fill="none" xmlns="http://www.w3.org/2000/svg">
<path d="M14.5938 0H1.40625C0.631813 0 0 0.621415 0 1.38462V10.6154C0 11.376 0.629 12 1.40625 12H14.5938C15.3663 12 16 11.3807 16 10.6154V1.38462C16 0.624 15.371 0 14.5938 0ZM14.3996 0.923077L8.02981 7.19486L1.60497 0.923077H14.3996ZM0.9375 10.4242V1.57135L5.45247 5.97874L0.9375 10.4242ZM1.60041 11.0769L6.11822 6.62862L7.70125 8.17391C7.8845 8.3528 8.18022 8.35221 8.36272 8.17249L9.90625 6.65271L14.3996 11.0769H1.60041ZM15.0625 10.4242L10.5692 6L15.0625 1.57575V10.4242Z" fill="#1D0051"/>
</svg>
