<svg width="16" height="16" viewBox="0 0 16 16" fill="none" xmlns="http://www.w3.org/2000/svg">
<path d="M15.5887 11.801L13.5996 9.81201C13.0512 9.26366 12.1588 9.26366 11.6105 9.81201L10.7063 10.7161C10.2909 11.1315 9.61484 11.1314 9.19954 10.7163L5.28062 6.79416C4.8642 6.37775 4.86413 5.70379 5.28062 5.28732C5.42625 5.14169 5.84443 4.72353 6.18475 4.38322C6.73075 3.83728 6.73837 2.94775 6.18422 2.39369L4.19563 0.411438C3.64724 -0.136906 2.75491 -0.136906 2.20798 0.41C1.79872 0.815688 1.66671 0.946563 1.4832 1.12847C-0.494385 3.10594 -0.494385 6.32354 1.48311 8.30094L7.69251 14.5133C9.67472 16.4955 12.883 16.4956 14.8654 14.5133L15.5887 13.79C16.1371 13.2417 16.1371 12.3494 15.5887 11.801ZM2.86958 1.07444C3.05237 0.891657 3.34975 0.891626 3.53314 1.07494L5.52172 3.05719C5.70495 3.24041 5.70495 3.53694 5.52172 3.72019L5.19018 4.05169L2.53975 1.40138L2.86958 1.07444ZM8.35566 13.8504L2.14623 7.63797C0.616226 6.10804 0.532129 3.70569 1.8876 2.07528L4.53034 4.71791C3.83593 5.50507 3.86487 6.70454 4.61743 7.45707L8.53623 11.379C8.53626 11.379 8.53633 11.3791 8.53636 11.3791C9.28811 12.1309 10.4876 12.1617 11.2757 11.4664L13.9185 14.109C12.2932 15.4621 9.8962 15.3909 8.35566 13.8504ZM14.9257 13.127L14.5942 13.4586L11.942 10.8065L12.2735 10.475C12.4563 10.2922 12.7537 10.2922 12.9366 10.475L14.9257 12.464C15.1085 12.6469 15.1085 12.9443 14.9257 13.127Z" fill="#1D0051"/>
</svg>
