<svg width="82" height="81" viewBox="0 0 82 81" fill="none" xmlns="http://www.w3.org/2000/svg">
<path d="M21.9699 48.0801C22.209 48.3186 22.5342 48.4536 22.874 48.4553C23.2139 48.457 23.5404 48.3253 23.7819 48.0891C24.0234 47.853 24.1601 47.5317 24.1618 47.196C24.1635 46.8604 24.0301 46.5378 23.7911 46.2992C19.2192 41.7175 16.6563 35.5426 16.6563 29.1093C16.6563 22.6759 19.2192 16.501 23.7911 11.9193C24.0301 11.6808 24.1635 11.3582 24.1618 11.0225C24.1601 10.6868 24.0234 10.3656 23.7819 10.1294C23.5404 9.89323 23.2139 9.76151 22.874 9.7632C22.5342 9.76489 22.209 9.89986 21.9699 10.1384C16.9231 15.1941 14.0937 22.009 14.0938 29.1093C14.0937 36.2095 16.9231 43.0244 21.9699 48.0801Z" fill="#4A0059"/>
<path d="M58.2183 48.0893C58.4598 48.3254 58.7863 48.4571 59.1261 48.4554C59.4659 48.4537 59.7911 48.3188 60.0301 48.0803C65.0769 43.0245 67.9063 36.2096 67.9063 29.1093C67.9063 22.0091 65.0769 15.1942 60.0301 10.1384C59.791 9.89986 59.4658 9.76489 59.126 9.7632C58.7862 9.76151 58.4596 9.89323 58.2181 10.1294C57.9766 10.3656 57.84 10.6868 57.8383 11.0225C57.8366 11.3582 57.9699 11.6808 58.209 11.9193C62.7808 16.5011 65.3438 22.676 65.3438 29.1093C65.3438 35.5427 62.7808 41.7176 58.209 46.2994C58.0906 46.4175 57.997 46.5575 57.9334 46.7114C57.8698 46.8653 57.8375 47.03 57.8383 47.1962C57.8392 47.3624 57.8732 47.5269 57.9384 47.6801C58.0036 47.8333 58.0987 47.9724 58.2183 48.0893Z" fill="#4A0059"/>
<path d="M15.6325 55.6875C15.8853 55.6875 16.1325 55.6136 16.3429 55.4751C16.5534 55.3366 16.7176 55.1397 16.815 54.9092C16.9123 54.6787 16.9385 54.4249 16.8901 54.1797C16.8417 53.9345 16.721 53.709 16.5431 53.5315C10.0475 47.0223 6.4061 38.2494 6.4061 29.1093C6.4061 19.9693 10.0475 11.1964 16.5431 4.68721C16.6621 4.56923 16.7564 4.4292 16.8205 4.27516C16.8846 4.12111 16.9173 3.95608 16.9168 3.78952C16.9162 3.62297 16.8823 3.45816 16.8172 3.30455C16.752 3.15095 16.6567 3.01156 16.5369 2.89438C16.4171 2.77721 16.275 2.68455 16.1188 2.62173C15.9627 2.5589 15.7955 2.52713 15.6269 2.52826C15.4583 2.52938 15.2916 2.56337 15.1363 2.62827C14.981 2.69317 14.8402 2.78771 14.722 2.90647C7.75143 9.88965 3.84363 19.3024 3.84363 29.1093C3.84363 38.9162 7.75143 48.329 14.722 55.3122C14.8409 55.4313 14.9827 55.5258 15.139 55.5902C15.2954 55.6546 15.4631 55.6877 15.6325 55.6875Z" fill="#4A0059"/>
<path d="M75.594 29.1093C75.627 38.2557 71.9807 47.0406 65.457 53.5315C65.338 53.6495 65.2438 53.7895 65.1796 53.9435C65.1155 54.0976 65.0828 54.2626 65.0834 54.4292C65.084 54.5957 65.1178 54.7605 65.183 54.9141C65.2482 55.0677 65.3434 55.2071 65.4633 55.3243C65.5831 55.4415 65.7252 55.5341 65.8813 55.597C66.0375 55.6598 66.2047 55.6915 66.3733 55.6904C66.5419 55.6893 66.7086 55.6553 66.8639 55.5904C67.0192 55.5255 67.16 55.431 67.2782 55.3122C74.2487 48.329 78.1565 38.9162 78.1565 29.1093C78.1565 19.3024 74.2487 9.88964 67.2782 2.90647C67.16 2.78771 67.0192 2.69317 66.8639 2.62827C66.7086 2.56337 66.5419 2.52938 66.3733 2.52826C66.2047 2.52713 66.0375 2.5589 65.8813 2.62173C65.7252 2.68455 65.5831 2.77721 65.4633 2.89438C65.3434 3.01156 65.2482 3.15095 65.183 3.30455C65.1178 3.45816 65.084 3.62297 65.0834 3.78952C65.0828 3.95608 65.1155 4.12111 65.1796 4.27516C65.2438 4.4292 65.338 4.56923 65.457 4.68721C71.9807 11.1781 75.627 19.9629 75.594 29.1093Z" fill="#4A0059"/>
<path d="M30.1284 41.2233C30.3813 41.2233 30.6285 41.1495 30.839 41.011C31.0494 40.8725 31.2137 40.6755 31.3111 40.445C31.4084 40.2144 31.4346 39.9606 31.3862 39.7154C31.3377 39.4702 31.217 39.2447 31.039 39.0671C28.3909 36.4129 26.9064 32.836 26.9064 29.1094C26.9064 25.3828 28.3909 21.8058 31.039 19.1516C31.2781 18.913 31.4114 18.5904 31.4097 18.2548C31.408 17.9191 31.2714 17.5978 31.0299 17.3617C30.7884 17.1255 30.4618 16.9938 30.122 16.9955C29.7822 16.9972 29.457 17.1321 29.2179 17.3707C26.0948 20.4989 24.3439 24.7158 24.3439 29.1094C24.3439 33.5029 26.0948 37.7198 29.2179 40.848C29.3369 40.9671 29.4787 41.0616 29.635 41.126C29.7913 41.1904 29.959 41.2235 30.1284 41.2233Z" fill="#4A0059"/>
<path d="M50.9705 40.857C51.2119 41.0932 51.5385 41.2249 51.8783 41.2232C52.2181 41.2215 52.5432 41.0865 52.7823 40.848C55.9053 37.7198 57.6562 33.5029 57.6562 29.1094C57.6562 24.7159 55.9053 20.4989 52.7823 17.3707C52.5419 17.1387 52.2188 17.0093 51.8827 17.0104C51.5466 17.0115 51.2244 17.1431 50.9855 17.3767C50.7467 17.6103 50.6103 17.9272 50.6059 18.2592C50.6014 18.5912 50.7292 18.9116 50.9617 19.1514C53.6097 21.8057 55.0942 25.3827 55.0942 29.1094C55.0942 32.836 53.6097 36.413 50.9617 39.0673C50.7226 39.3058 50.5892 39.6283 50.5908 39.964C50.5925 40.2996 50.729 40.6209 50.9705 40.857Z" fill="#4A0059"/>
<path d="M65.3438 60.75H42.2812V35.3109C43.8367 34.9973 45.2189 34.1243 46.1598 32.8612C47.1008 31.5981 47.5334 30.0349 47.3738 28.4746C47.2142 26.9144 46.4739 25.4682 45.2962 24.4165C44.1186 23.3648 42.5876 22.7825 41 22.7825C39.4124 22.7825 37.8814 23.3648 36.7038 24.4165C35.5261 25.4682 34.7858 26.9144 34.6262 28.4746C34.4666 30.0349 34.8992 31.5981 35.8402 32.8612C36.7811 34.1243 38.1633 34.9973 39.7188 35.3109V60.75H16.6562C13.599 60.7534 10.668 61.9546 8.50622 64.09C6.34443 66.2254 5.12843 69.1207 5.125 72.1406V77.2031C5.125 77.5388 5.25999 77.8607 5.50027 78.0981C5.74055 78.3354 6.06644 78.4688 6.40625 78.4688H75.5938C75.9336 78.4688 76.2595 78.3354 76.4997 78.0981C76.74 77.8607 76.875 77.5388 76.875 77.2031V72.1406C76.8716 69.1207 75.6556 66.2254 73.4938 64.09C71.332 61.9546 68.401 60.7534 65.3438 60.75ZM37.1562 29.1094C37.1562 28.3584 37.3817 27.6243 37.804 27C38.2264 26.3756 38.8267 25.8889 39.5291 25.6015C40.2314 25.3141 41.0043 25.239 41.7499 25.3855C42.4955 25.532 43.1804 25.8936 43.7179 26.4246C44.2555 26.9556 44.6216 27.6321 44.7699 28.3686C44.9182 29.1052 44.8421 29.8686 44.5512 30.5624C44.2602 31.2562 43.7676 31.8492 43.1355 32.2664C42.5034 32.6836 41.7602 32.9063 41 32.9063C39.9809 32.9051 39.004 32.5047 38.2834 31.7929C37.5628 31.0811 37.1574 30.116 37.1562 29.1094ZM74.3125 75.9375H7.6875V72.1406C7.69017 69.7918 8.63595 67.5399 10.3173 65.879C11.9987 64.2181 14.2784 63.2839 16.6562 63.2813H65.3438C67.7216 63.2839 70.0013 64.2181 71.6827 65.879C73.3641 67.5399 74.3098 69.7918 74.3125 72.1406V75.9375Z" fill="#4A0059"/>
<path d="M41 70.875C41.7076 70.875 42.2812 70.3084 42.2812 69.6094C42.2812 68.9104 41.7076 68.3438 41 68.3438C40.2924 68.3438 39.7188 68.9104 39.7188 69.6094C39.7188 70.3084 40.2924 70.875 41 70.875Z" fill="#4A0059"/>
<path d="M46.125 70.875C46.8326 70.875 47.4062 70.3084 47.4062 69.6094C47.4062 68.9104 46.8326 68.3438 46.125 68.3438C45.4174 68.3438 44.8438 68.9104 44.8438 69.6094C44.8438 70.3084 45.4174 70.875 46.125 70.875Z" fill="#4A0059"/>
<path d="M51.25 70.875C51.9576 70.875 52.5312 70.3084 52.5312 69.6094C52.5312 68.9104 51.9576 68.3438 51.25 68.3438C50.5424 68.3438 49.9688 68.9104 49.9688 69.6094C49.9688 70.3084 50.5424 70.875 51.25 70.875Z" fill="#4A0059"/>
<path d="M35.875 70.875C36.5826 70.875 37.1562 70.3084 37.1562 69.6094C37.1562 68.9104 36.5826 68.3438 35.875 68.3438C35.1674 68.3438 34.5938 68.9104 34.5938 69.6094C34.5938 70.3084 35.1674 70.875 35.875 70.875Z" fill="#4A0059"/>
<path d="M30.75 70.875C31.4576 70.875 32.0312 70.3084 32.0312 69.6094C32.0312 68.9104 31.4576 68.3438 30.75 68.3438C30.0424 68.3438 29.4688 68.9104 29.4688 69.6094C29.4688 70.3084 30.0424 70.875 30.75 70.875Z" fill="#4A0059"/>
</svg>
