<svg width="83" height="83" viewBox="0 0 83 83" fill="none" xmlns="http://www.w3.org/2000/svg">
<path d="M34.9952 5.58206L34.9952 5.58205C37.6435 2.93376 41.9538 2.93392 44.6018 5.58204L44.9553 5.2285L44.6018 5.58205L72.1054 33.0856C74.744 35.7245 74.7533 40.0134 72.1336 42.6637L72.1054 42.6919C69.7771 45.0202 66.154 45.3088 63.5035 43.5192L63.3305 43.4024L63.1257 43.4433L62.9319 43.4821L62.9318 43.4821C55.8944 44.8896 49.3038 47.7182 43.5006 51.7812L43.0124 52.123L43.4338 52.5444L44.6019 53.7127L44.6019 53.7127C47.2572 56.368 47.2569 60.6643 44.6019 63.3191L44.9555 63.6727L44.6019 63.3191L42.8829 65.0381L42.5294 65.3917L42.8829 65.7452L48.0398 70.9021C50.6881 73.5502 50.6881 77.8604 48.0398 80.5085L48.3933 80.8621L48.0398 80.5085C45.3847 83.1638 41.0883 83.1636 38.4334 80.5085L26.4006 68.4758L26.0471 68.1223L25.6935 68.4758L23.9745 70.1948C21.3194 72.8499 17.0227 72.8498 14.3679 70.1948L7.49224 63.3191L7.13869 63.6727L7.49222 63.3191C4.83686 60.6641 4.83726 56.3677 7.49224 53.7125L20.1074 41.0974C27.3277 33.8773 32.2027 24.768 34.205 14.7558L34.205 14.7557L34.2432 14.5643L34.2843 14.3589L34.1668 14.1857C32.4086 11.593 32.615 7.96204 34.9952 5.58206ZM21.2438 67.4641L21.2438 67.4641C22.4501 66.2577 32.0991 56.6086 33.2763 55.4314L33.6299 55.0778L33.2763 54.7243L22.9626 44.4106L22.6091 44.057L22.2555 44.4106L10.223 56.4433C9.07758 57.5887 9.07763 59.4427 10.223 60.5882L10.223 60.5882L17.0986 67.4639C18.2439 68.6093 20.0986 68.6091 21.2438 67.4641ZM29.1312 65.0378L28.7777 65.3914L29.1312 65.7449L41.1639 77.7776C42.3069 78.9206 44.1659 78.9206 45.3089 77.7776L44.9553 77.4241L45.3089 77.7776C46.4518 76.6345 46.4519 74.7756 45.3089 73.6327L33.2763 61.6L32.9228 61.2464L32.5692 61.6L29.1312 65.0378ZM36.0071 58.1621L35.6535 58.5157L36.0071 58.8692L39.4449 62.3072L39.7985 62.6608L40.152 62.3072L41.871 60.5882L41.8711 60.5882C43.0164 59.4427 43.0164 57.5887 41.8711 56.4433L40.2654 54.8374L39.9385 54.5106L39.5871 54.8108C37.9843 56.1797 36.9197 57.2472 36.191 57.9779C36.1272 58.0419 36.0659 58.1033 36.0071 58.1621ZM36.1103 52.097L36.4394 52.426L36.7912 52.1214C43.2433 46.5337 50.8587 42.5325 59.1327 40.3919L59.9795 40.1728L59.361 39.5543L38.1325 18.3258L37.514 17.7073L37.2949 18.5541C35.1541 26.828 31.1529 34.4436 25.5654 40.8955L25.2607 41.2473L25.5898 41.5764L36.1103 52.097ZM69.3741 39.961L69.3742 39.9609C70.517 38.8177 70.5171 36.959 69.3742 35.8159L69.0206 36.1694L69.3741 35.8159L41.871 8.31279C40.7257 7.16741 38.8713 7.16741 37.7259 8.31279C36.5805 9.45819 36.5806 11.3122 37.7259 12.4577L37.7259 12.4577L65.2292 39.961L65.2292 39.961C66.3746 41.1062 68.2287 41.1062 69.3741 39.961Z" fill="#4A0059" stroke="#F7F7F7"/>
<path d="M23.9745 53.7124L23.9745 53.7124C24.7285 54.4665 24.7285 55.6891 23.9745 56.4431L20.5366 59.881L20.5366 59.881C19.7827 60.635 18.5598 60.635 17.8059 59.881L17.8059 59.881C17.0518 59.1269 17.0518 57.9043 17.8059 57.1503L21.2437 53.7124C21.9978 52.9583 23.2206 52.9584 23.9745 53.7124Z" fill="#4A0059" stroke="#F9F9F9"/>
<path d="M54.1896 2.43099C54.1896 1.36454 55.0541 0.5 56.1206 0.5C57.187 0.5 58.0515 1.36454 58.0515 2.43099V7.29296C58.0515 8.35941 57.187 9.22395 56.1206 9.22395C55.0541 9.22395 54.1896 8.35941 54.1896 7.29296V2.43099Z" fill="#4A0059" stroke="#F7F7F7"/>
<path d="M70.7063 19.9476H75.5682C76.6345 19.9476 77.4992 20.8121 77.4992 21.8786C77.4992 22.945 76.6347 23.8096 75.5682 23.8096H70.7063C69.6398 23.8096 68.7753 22.945 68.7753 21.8786C68.7753 20.8121 69.6398 19.9476 70.7063 19.9476Z" fill="#4A0059" stroke="#F7F7F7"/>
<path d="M64.479 13.5201L64.479 13.5201C63.7249 12.766 63.7249 11.5434 64.479 10.7893L69.341 5.92735C70.095 5.17329 71.3178 5.17333 72.0717 5.92732C72.8258 6.68156 72.8257 7.90406 72.0717 8.65809L67.2097 13.5201L67.2097 13.5201C66.4557 14.2742 65.2329 14.2741 64.479 13.5201Z" fill="#4A0059" stroke="#F7F7F7"/>
</svg>
