<svg width="86" height="78" viewBox="0 0 86 78" fill="none" xmlns="http://www.w3.org/2000/svg">
<mask id="path-1-inside-1" fill="white">
<path d="M69.7213 38.0213C78.5353 30.0975 79.2571 16.529 71.3334 7.71504C64.066 -0.368837 51.902 -1.74216 43.0153 4.51813C33.3277 -2.31877 19.9322 -0.00782603 13.0953 9.67954C6.82184 18.5686 8.18958 30.7452 16.2787 38.0211C6.22778 43.3193 -0.0452851 53.7646 0.00024619 65.1262V74.3405C0.00024619 76.0368 1.37536 77.412 3.07172 77.412H82.9284C84.6247 77.412 85.9999 76.0368 85.9999 74.3405V65.1262C86.0452 53.7646 79.7722 43.3193 69.7213 38.0213ZM55.2855 6.7695C63.755 6.76014 70.6286 13.6185 70.6382 22.088C70.6448 28.1284 67.1053 33.6099 61.5973 36.0891C61.3608 36.1966 61.1243 36.2948 60.8848 36.3963C60.1268 36.7021 59.345 36.9454 58.5474 37.1243C58.3939 37.1581 58.2402 37.1765 58.0836 37.2073C57.1924 37.3781 56.2881 37.4695 55.3807 37.4806C54.9722 37.4806 54.5606 37.4499 54.1521 37.4132C53.9986 37.4132 53.8449 37.4132 53.6914 37.3824C51.9457 37.1769 50.2475 36.6764 48.6696 35.902C48.6113 35.8743 48.5436 35.8773 48.4853 35.8528C48.1781 35.7055 47.8711 35.5764 47.5977 35.4105C47.6224 35.3797 47.6377 35.3461 47.6622 35.3153C49.0706 33.5056 50.181 31.4827 50.9516 29.323L51.0468 29.0649C51.3972 28.0333 51.6693 26.9769 51.8607 25.9043C51.8885 25.7478 51.9099 25.5971 51.9345 25.4283C52.1122 24.3365 52.2056 23.2328 52.214 22.1265C52.2052 21.0224 52.1118 19.9207 51.9345 18.8308C51.9099 18.6712 51.8885 18.5236 51.8607 18.3548C51.6693 17.2824 51.3972 16.2258 51.0468 15.1942L50.9516 14.9362C50.181 12.7764 49.0704 10.7536 47.6622 8.94385C47.6375 8.91307 47.6222 8.87942 47.5977 8.84864C49.9312 7.48738 52.584 6.76968 55.2855 6.7695ZM15.3573 22.1267C15.3355 13.6672 22.1754 6.79182 30.6349 6.77004C34.6003 6.75978 38.4152 8.28787 41.277 11.0327C41.4551 11.2048 41.6303 11.3766 41.8021 11.5548C42.3296 12.1075 42.816 12.6977 43.258 13.3208C43.3932 13.5112 43.5161 13.714 43.6419 13.9105C44.0711 14.5712 44.448 15.2644 44.769 15.9837C44.8459 16.1588 44.9042 16.337 44.9717 16.5119C45.2954 17.3076 45.5503 18.1297 45.7335 18.969C45.7551 19.0612 45.7612 19.1533 45.7795 19.2485C46.1686 21.1556 46.1686 23.1217 45.7795 25.0288C45.7612 25.124 45.7549 25.2162 45.7335 25.3083C45.5504 26.1477 45.2956 26.9697 44.9717 27.7654C44.9042 27.9405 44.8457 28.1186 44.769 28.2936C44.4476 29.0118 44.0708 29.704 43.6419 30.3637C43.5159 30.5602 43.3932 30.7631 43.258 30.9535C42.8162 31.5767 42.3296 32.1668 41.8021 32.7195C41.6301 32.8976 41.455 33.0697 41.277 33.2415C40.0334 34.4266 38.5996 35.3943 37.0354 36.1041C36.7867 36.2176 36.5347 36.3222 36.2799 36.4113C35.5395 36.7052 34.7777 36.9413 34.001 37.1176C33.8075 37.1607 33.6077 37.1851 33.4112 37.219C32.5773 37.3743 31.7316 37.4594 30.8834 37.474H30.5456C29.6975 37.4596 28.8518 37.3743 28.0178 37.219C27.8213 37.1851 27.6215 37.1607 27.4281 37.1176C26.6514 36.9413 25.8894 36.7052 25.1492 36.4113C24.8942 36.31 24.6424 36.2056 24.3937 36.1041C18.8986 33.6231 15.3643 28.1557 15.3573 22.1267ZM55.2855 71.2692H6.14301V65.1264C6.09802 54.7185 12.6556 45.4259 22.4767 41.9803C27.749 44.1754 33.6794 44.1754 38.9518 41.9803C39.9773 42.355 40.9766 42.7972 41.9434 43.3041C42.5823 43.6328 43.172 44.0075 43.7862 44.3852C44.1856 44.6339 44.5909 44.8767 44.9749 45.1501C45.5677 45.5708 46.1267 46.0285 46.6765 46.4984C47.0298 46.8056 47.3798 47.1126 47.7115 47.4198C48.2182 47.8988 48.6943 48.4056 49.1519 48.9248C49.4805 49.2995 49.8 49.6803 50.1041 50.0736C50.5065 50.5895 50.8904 51.1179 51.2467 51.6614C51.5539 52.1221 51.8273 52.6012 52.0974 53.0804C52.4046 53.6086 52.6872 54.137 52.945 54.6868C53.2031 55.2366 53.4304 55.8386 53.6514 56.4253C53.8449 56.9351 54.0508 57.4419 54.2104 57.9609C54.4254 58.6734 54.5759 59.4105 54.7263 60.1477C54.8185 60.5837 54.9383 61.0108 55.0058 61.453C55.1878 62.669 55.2812 63.8967 55.2853 65.1264V71.2692H55.2855ZM79.8569 71.2692H61.4284V65.1264C61.4284 64.165 61.3732 63.2128 61.2872 62.27C61.2625 61.9936 61.2197 61.7202 61.1889 61.4438C61.1059 60.765 61.0107 60.0924 60.8817 59.4258C60.8265 59.1413 60.7682 58.8555 60.7066 58.5688C60.5592 57.885 60.3882 57.2072 60.1937 56.5356C60.1293 56.3144 60.0708 56.0902 60.0033 55.8722C59.1432 53.1229 57.897 50.5098 56.3023 48.1108L56.1824 47.9357C55.6542 47.1515 55.0901 46.3929 54.4901 45.6599L54.4686 45.6322C53.8544 44.8706 53.1878 44.1302 52.4876 43.4299C52.5275 43.4299 52.5705 43.4299 52.6135 43.4299C53.4803 43.5439 54.3531 43.6054 55.2274 43.6142H55.3964C56.2055 43.6072 57.0133 43.5548 57.8167 43.4577C58.0685 43.4269 58.3174 43.3808 58.5691 43.3409C59.2224 43.2406 59.8674 43.1105 60.5041 42.9509C60.6854 42.9048 60.8696 42.8618 61.0539 42.8096C61.8895 42.5823 62.7102 42.3032 63.511 41.9742C73.3393 45.4164 79.9028 54.7131 79.8571 65.1266V71.2692H79.8569Z"/>
</mask>
<path d="M69.7213 38.0213C78.5353 30.0975 79.2571 16.529 71.3334 7.71504C64.066 -0.368837 51.902 -1.74216 43.0153 4.51813C33.3277 -2.31877 19.9322 -0.00782603 13.0953 9.67954C6.82184 18.5686 8.18958 30.7452 16.2787 38.0211C6.22778 43.3193 -0.0452851 53.7646 0.00024619 65.1262V74.3405C0.00024619 76.0368 1.37536 77.412 3.07172 77.412H82.9284C84.6247 77.412 85.9999 76.0368 85.9999 74.3405V65.1262C86.0452 53.7646 79.7722 43.3193 69.7213 38.0213ZM55.2855 6.7695C63.755 6.76014 70.6286 13.6185 70.6382 22.088C70.6448 28.1284 67.1053 33.6099 61.5973 36.0891C61.3608 36.1966 61.1243 36.2948 60.8848 36.3963C60.1268 36.7021 59.345 36.9454 58.5474 37.1243C58.3939 37.1581 58.2402 37.1765 58.0836 37.2073C57.1924 37.3781 56.2881 37.4695 55.3807 37.4806C54.9722 37.4806 54.5606 37.4499 54.1521 37.4132C53.9986 37.4132 53.8449 37.4132 53.6914 37.3824C51.9457 37.1769 50.2475 36.6764 48.6696 35.902C48.6113 35.8743 48.5436 35.8773 48.4853 35.8528C48.1781 35.7055 47.8711 35.5764 47.5977 35.4105C47.6224 35.3797 47.6377 35.3461 47.6622 35.3153C49.0706 33.5056 50.181 31.4827 50.9516 29.323L51.0468 29.0649C51.3972 28.0333 51.6693 26.9769 51.8607 25.9043C51.8885 25.7478 51.9099 25.5971 51.9345 25.4283C52.1122 24.3365 52.2056 23.2328 52.214 22.1265C52.2052 21.0224 52.1118 19.9207 51.9345 18.8308C51.9099 18.6712 51.8885 18.5236 51.8607 18.3548C51.6693 17.2824 51.3972 16.2258 51.0468 15.1942L50.9516 14.9362C50.181 12.7764 49.0704 10.7536 47.6622 8.94385C47.6375 8.91307 47.6222 8.87942 47.5977 8.84864C49.9312 7.48738 52.584 6.76968 55.2855 6.7695ZM15.3573 22.1267C15.3355 13.6672 22.1754 6.79182 30.6349 6.77004C34.6003 6.75978 38.4152 8.28787 41.277 11.0327C41.4551 11.2048 41.6303 11.3766 41.8021 11.5548C42.3296 12.1075 42.816 12.6977 43.258 13.3208C43.3932 13.5112 43.5161 13.714 43.6419 13.9105C44.0711 14.5712 44.448 15.2644 44.769 15.9837C44.8459 16.1588 44.9042 16.337 44.9717 16.5119C45.2954 17.3076 45.5503 18.1297 45.7335 18.969C45.7551 19.0612 45.7612 19.1533 45.7795 19.2485C46.1686 21.1556 46.1686 23.1217 45.7795 25.0288C45.7612 25.124 45.7549 25.2162 45.7335 25.3083C45.5504 26.1477 45.2956 26.9697 44.9717 27.7654C44.9042 27.9405 44.8457 28.1186 44.769 28.2936C44.4476 29.0118 44.0708 29.704 43.6419 30.3637C43.5159 30.5602 43.3932 30.7631 43.258 30.9535C42.8162 31.5767 42.3296 32.1668 41.8021 32.7195C41.6301 32.8976 41.455 33.0697 41.277 33.2415C40.0334 34.4266 38.5996 35.3943 37.0354 36.1041C36.7867 36.2176 36.5347 36.3222 36.2799 36.4113C35.5395 36.7052 34.7777 36.9413 34.001 37.1176C33.8075 37.1607 33.6077 37.1851 33.4112 37.219C32.5773 37.3743 31.7316 37.4594 30.8834 37.474H30.5456C29.6975 37.4596 28.8518 37.3743 28.0178 37.219C27.8213 37.1851 27.6215 37.1607 27.4281 37.1176C26.6514 36.9413 25.8894 36.7052 25.1492 36.4113C24.8942 36.31 24.6424 36.2056 24.3937 36.1041C18.8986 33.6231 15.3643 28.1557 15.3573 22.1267ZM55.2855 71.2692H6.14301V65.1264C6.09802 54.7185 12.6556 45.4259 22.4767 41.9803C27.749 44.1754 33.6794 44.1754 38.9518 41.9803C39.9773 42.355 40.9766 42.7972 41.9434 43.3041C42.5823 43.6328 43.172 44.0075 43.7862 44.3852C44.1856 44.6339 44.5909 44.8767 44.9749 45.1501C45.5677 45.5708 46.1267 46.0285 46.6765 46.4984C47.0298 46.8056 47.3798 47.1126 47.7115 47.4198C48.2182 47.8988 48.6943 48.4056 49.1519 48.9248C49.4805 49.2995 49.8 49.6803 50.1041 50.0736C50.5065 50.5895 50.8904 51.1179 51.2467 51.6614C51.5539 52.1221 51.8273 52.6012 52.0974 53.0804C52.4046 53.6086 52.6872 54.137 52.945 54.6868C53.2031 55.2366 53.4304 55.8386 53.6514 56.4253C53.8449 56.9351 54.0508 57.4419 54.2104 57.9609C54.4254 58.6734 54.5759 59.4105 54.7263 60.1477C54.8185 60.5837 54.9383 61.0108 55.0058 61.453C55.1878 62.669 55.2812 63.8967 55.2853 65.1264V71.2692H55.2855ZM79.8569 71.2692H61.4284V65.1264C61.4284 64.165 61.3732 63.2128 61.2872 62.27C61.2625 61.9936 61.2197 61.7202 61.1889 61.4438C61.1059 60.765 61.0107 60.0924 60.8817 59.4258C60.8265 59.1413 60.7682 58.8555 60.7066 58.5688C60.5592 57.885 60.3882 57.2072 60.1937 56.5356C60.1293 56.3144 60.0708 56.0902 60.0033 55.8722C59.1432 53.1229 57.897 50.5098 56.3023 48.1108L56.1824 47.9357C55.6542 47.1515 55.0901 46.3929 54.4901 45.6599L54.4686 45.6322C53.8544 44.8706 53.1878 44.1302 52.4876 43.4299C52.5275 43.4299 52.5705 43.4299 52.6135 43.4299C53.4803 43.5439 54.3531 43.6054 55.2274 43.6142H55.3964C56.2055 43.6072 57.0133 43.5548 57.8167 43.4577C58.0685 43.4269 58.3174 43.3808 58.5691 43.3409C59.2224 43.2406 59.8674 43.1105 60.5041 42.9509C60.6854 42.9048 60.8696 42.8618 61.0539 42.8096C61.8895 42.5823 62.7102 42.3032 63.511 41.9742C73.3393 45.4164 79.9028 54.7131 79.8571 65.1266V71.2692H79.8569Z" fill="#4A0059" stroke="#F7F7F7" stroke-width="2" mask="url(#path-1-inside-1)"/>
</svg>
