<svg width="86" height="86" viewBox="0 0 86 86" fill="none" xmlns="http://www.w3.org/2000/svg">
<g clip-path="url(#clip0)">
<mask id="path-1-inside-1" fill="white">
<path d="M84.4765 36.8423C83.5849 35.4959 82.2332 34.5681 80.6618 34.2164C81.6755 32.2776 81.6342 29.8584 80.3429 27.9091C79.4243 26.5214 78.0386 25.6251 76.5302 25.2859C76.7992 24.7728 76.998 24.219 77.1167 23.6351C77.4461 22.0111 77.1246 20.3564 76.2093 18.9752C75.3176 17.6282 73.966 16.7004 72.3946 16.3494C73.4083 14.4105 73.367 11.9914 72.0757 10.0414C70.188 7.19051 66.3313 6.40644 63.4798 8.29478L57.3056 12.3838C54.0145 10.7146 50.514 9.53026 46.881 8.85576C45.7328 7.11243 44.3976 5.49179 42.9029 4.04306L40.3486 1.56749C38.478 -0.246049 35.5444 -0.518342 33.3727 0.920547C30.8033 2.62189 30.0973 6.09674 31.7986 8.66614C31.8655 8.76784 31.9311 8.8702 31.9961 8.97256C23.6232 10.6667 15.9925 15.11 10.3445 21.6207C4.21562 28.6866 0.839844 37.7359 0.839844 47.1015C0.839844 48.8967 0.96254 50.6951 1.20531 52.4457C3.07593 66.0544 12.141 77.7821 24.862 83.0527C29.5796 85.008 34.5852 86.0001 39.7378 86.0001C47.898 86.0001 55.7092 83.5009 62.3276 78.7735C68.8023 74.1478 73.6465 67.7643 76.3373 60.3133C76.5886 59.6191 76.2283 58.8521 75.5342 58.6015C74.8393 58.3508 74.073 58.7104 73.8223 59.4052C71.3166 66.3438 66.8044 72.2883 60.7726 76.5971C54.6109 80.999 47.337 83.3257 39.7378 83.3257C35.8089 83.3257 31.9725 82.7056 28.3008 81.4826L39.1807 74.2777C39.1814 74.277 39.182 74.277 39.1827 74.2764C39.1833 74.2764 39.1833 74.2757 39.184 74.275L48.2261 68.2872H48.2268C49.0384 67.7492 49.5928 66.9277 49.787 65.9731C49.9812 65.0184 49.7923 64.0447 49.2542 63.2331L49.1348 63.052L50.8913 61.8887C52.1445 61.0587 53.6516 60.7332 55.1358 60.9714C57.2846 61.3165 59.4669 60.8441 61.2804 59.6427L75.8491 49.995C75.7494 51.2587 75.5853 52.5152 75.3564 53.7507C75.2212 54.477 75.7008 55.1751 76.4272 55.3097C76.5092 55.3254 76.5918 55.3326 76.6725 55.3326C77.3044 55.3326 77.866 54.8825 77.9855 54.2389C78.3562 52.2449 78.5694 50.2024 78.6245 48.1572L82.7299 45.4382C84.1111 44.5236 85.0539 43.1254 85.3833 41.5021C85.7133 39.8782 85.3912 38.2234 84.4765 36.8423ZM54.7093 14.1028L50.6236 16.8087L49.8192 14.6415C49.4832 13.7374 49.0981 12.8509 48.6716 11.9835C50.7443 12.5091 52.7626 13.2177 54.7093 14.1028ZM12.3647 23.3733C17.7929 17.1158 25.1868 12.9093 33.2756 11.4508C34.5734 14.5949 34.8844 18.1078 34.1088 21.4561L30.8485 35.5412C30.3361 34.9939 29.6708 34.6167 28.9215 34.4645C27.9662 34.2696 26.9931 34.4592 26.1815 34.9972L16.9465 41.1124C16.9458 41.1124 16.9458 41.1124 16.9452 41.113C16.9452 41.113 16.9445 41.113 16.9445 41.1137L3.62511 49.934C3.55228 48.9944 3.51422 48.0476 3.51422 47.1015C3.51422 38.3802 6.65773 29.9529 12.3647 23.3733ZM47.1665 65.4396C47.1146 65.6942 46.9663 65.914 46.7492 66.0577H46.7498L38.808 71.3166L24.0681 49.3343C23.6567 48.7208 22.8261 48.5574 22.2126 48.9688C21.5997 49.3802 21.4357 50.2102 21.8471 50.8237L36.5778 72.7935L25.2406 80.3016C13.9749 75.3741 5.91303 64.9679 3.97483 52.859L17.31 44.0571L18.8447 46.3469C19.1032 46.7314 19.5257 46.9394 19.9568 46.9394C20.2127 46.9394 20.4719 46.8666 20.7002 46.7131C21.3137 46.3017 21.4777 45.471 21.0663 44.8575L19.5421 42.584L27.6584 37.2268C27.8743 37.0831 28.1335 37.0332 28.3881 37.085C28.6426 37.1369 28.8624 37.2852 29.0061 37.5017L47.0247 64.71C47.1678 64.9259 47.2183 65.185 47.1665 65.4396ZM82.7627 40.9693C82.5751 41.8931 82.039 42.6884 81.253 43.2087L76.5597 46.3168C76.5584 46.3174 76.5571 46.3187 76.5551 46.3194L59.8035 57.4132C58.5503 58.2432 57.0432 58.5693 55.559 58.3305C53.4108 57.986 51.2285 58.4578 49.4143 59.6591L47.6579 60.8224L32.9002 38.5384L36.715 22.0597C37.6972 17.8145 37.1795 13.343 35.3082 9.44759C35.2912 9.40691 35.2728 9.36755 35.2518 9.32883C34.8923 8.59266 34.4841 7.87813 34.0281 7.1892C33.141 5.84938 33.5091 4.03781 34.8496 3.15007C35.9821 2.40012 37.5122 2.54184 38.4872 3.48732L41.0415 5.96355C43.8044 8.64252 45.9729 11.9652 47.3115 15.5726L48.7024 19.3197C48.7051 19.3269 48.7077 19.3328 48.7103 19.3394C48.7136 19.3479 48.7175 19.3571 48.7208 19.3656C48.7307 19.3886 48.7398 19.4096 48.7497 19.4273C48.7766 19.4837 48.8061 19.5395 48.8415 19.5926C49.2497 20.2088 50.079 20.3774 50.6945 19.9693L64.9567 10.525C66.5787 9.45087 68.7721 9.89638 69.8462 11.5183C70.9203 13.1403 70.4748 15.3337 68.8528 16.4078L67.6147 17.228C67.6147 17.228 67.614 17.228 67.6134 17.2286L64.8517 19.0579C64.8478 19.0605 64.8452 19.0632 64.8412 19.0651C64.8255 19.0763 64.8104 19.0868 64.7979 19.0973C64.2271 19.5165 64.0795 20.3137 64.4751 20.9108C64.8826 21.5269 65.7126 21.6955 66.3287 21.2874L69.0923 19.4568C69.8777 18.9378 70.8179 18.7548 71.7411 18.9424C72.6643 19.1301 73.4601 19.6661 73.9798 20.4522C74.5001 21.2376 74.6838 22.1791 74.4962 23.1023C74.3085 24.0261 73.7725 24.8213 72.9864 25.3416L68.9853 27.9917C68.3692 28.3992 68.2006 29.2286 68.6087 29.8447C68.8659 30.2331 69.2911 30.4437 69.7248 30.4437C69.9781 30.4437 70.2346 30.3715 70.4616 30.2213L71.081 29.8112L73.2239 28.392C74.8465 27.3179 77.0393 27.7634 78.1134 29.3854C79.1875 31.008 78.742 33.2008 77.12 34.2755L75.1215 35.5989C75.111 35.6055 75.1005 35.6127 75.09 35.6199L73.119 36.9249C72.5028 37.3324 72.3342 38.1624 72.7423 38.7785C72.9995 39.1669 73.4247 39.3775 73.8584 39.3775C74.1117 39.3775 74.3682 39.3054 74.5952 39.1551L75.2146 38.745C75.2146 38.745 75.2146 38.7444 75.2153 38.7444L77.3582 37.3258C78.1436 36.8055 79.0845 36.6218 80.0083 36.8101C80.9321 36.9971 81.7274 37.5338 82.2477 38.3192C82.7673 39.1046 82.9504 40.0461 82.7627 40.9693Z"/>
</mask>
<path d="M84.4765 36.8423C83.5849 35.4959 82.2332 34.5681 80.6618 34.2164C81.6755 32.2776 81.6342 29.8584 80.3429 27.9091C79.4243 26.5214 78.0386 25.6251 76.5302 25.2859C76.7992 24.7728 76.998 24.219 77.1167 23.6351C77.4461 22.0111 77.1246 20.3564 76.2093 18.9752C75.3176 17.6282 73.966 16.7004 72.3946 16.3494C73.4083 14.4105 73.367 11.9914 72.0757 10.0414C70.188 7.19051 66.3313 6.40644 63.4798 8.29478L57.3056 12.3838C54.0145 10.7146 50.514 9.53026 46.881 8.85576C45.7328 7.11243 44.3976 5.49179 42.9029 4.04306L40.3486 1.56749C38.478 -0.246049 35.5444 -0.518342 33.3727 0.920547C30.8033 2.62189 30.0973 6.09674 31.7986 8.66614C31.8655 8.76784 31.9311 8.8702 31.9961 8.97256C23.6232 10.6667 15.9925 15.11 10.3445 21.6207C4.21562 28.6866 0.839844 37.7359 0.839844 47.1015C0.839844 48.8967 0.96254 50.6951 1.20531 52.4457C3.07593 66.0544 12.141 77.7821 24.862 83.0527C29.5796 85.008 34.5852 86.0001 39.7378 86.0001C47.898 86.0001 55.7092 83.5009 62.3276 78.7735C68.8023 74.1478 73.6465 67.7643 76.3373 60.3133C76.5886 59.6191 76.2283 58.8521 75.5342 58.6015C74.8393 58.3508 74.073 58.7104 73.8223 59.4052C71.3166 66.3438 66.8044 72.2883 60.7726 76.5971C54.6109 80.999 47.337 83.3257 39.7378 83.3257C35.8089 83.3257 31.9725 82.7056 28.3008 81.4826L39.1807 74.2777C39.1814 74.277 39.182 74.277 39.1827 74.2764C39.1833 74.2764 39.1833 74.2757 39.184 74.275L48.2261 68.2872H48.2268C49.0384 67.7492 49.5928 66.9277 49.787 65.9731C49.9812 65.0184 49.7923 64.0447 49.2542 63.2331L49.1348 63.052L50.8913 61.8887C52.1445 61.0587 53.6516 60.7332 55.1358 60.9714C57.2846 61.3165 59.4669 60.8441 61.2804 59.6427L75.8491 49.995C75.7494 51.2587 75.5853 52.5152 75.3564 53.7507C75.2212 54.477 75.7008 55.1751 76.4272 55.3097C76.5092 55.3254 76.5918 55.3326 76.6725 55.3326C77.3044 55.3326 77.866 54.8825 77.9855 54.2389C78.3562 52.2449 78.5694 50.2024 78.6245 48.1572L82.7299 45.4382C84.1111 44.5236 85.0539 43.1254 85.3833 41.5021C85.7133 39.8782 85.3912 38.2234 84.4765 36.8423ZM54.7093 14.1028L50.6236 16.8087L49.8192 14.6415C49.4832 13.7374 49.0981 12.8509 48.6716 11.9835C50.7443 12.5091 52.7626 13.2177 54.7093 14.1028ZM12.3647 23.3733C17.7929 17.1158 25.1868 12.9093 33.2756 11.4508C34.5734 14.5949 34.8844 18.1078 34.1088 21.4561L30.8485 35.5412C30.3361 34.9939 29.6708 34.6167 28.9215 34.4645C27.9662 34.2696 26.9931 34.4592 26.1815 34.9972L16.9465 41.1124C16.9458 41.1124 16.9458 41.1124 16.9452 41.113C16.9452 41.113 16.9445 41.113 16.9445 41.1137L3.62511 49.934C3.55228 48.9944 3.51422 48.0476 3.51422 47.1015C3.51422 38.3802 6.65773 29.9529 12.3647 23.3733ZM47.1665 65.4396C47.1146 65.6942 46.9663 65.914 46.7492 66.0577H46.7498L38.808 71.3166L24.0681 49.3343C23.6567 48.7208 22.8261 48.5574 22.2126 48.9688C21.5997 49.3802 21.4357 50.2102 21.8471 50.8237L36.5778 72.7935L25.2406 80.3016C13.9749 75.3741 5.91303 64.9679 3.97483 52.859L17.31 44.0571L18.8447 46.3469C19.1032 46.7314 19.5257 46.9394 19.9568 46.9394C20.2127 46.9394 20.4719 46.8666 20.7002 46.7131C21.3137 46.3017 21.4777 45.471 21.0663 44.8575L19.5421 42.584L27.6584 37.2268C27.8743 37.0831 28.1335 37.0332 28.3881 37.085C28.6426 37.1369 28.8624 37.2852 29.0061 37.5017L47.0247 64.71C47.1678 64.9259 47.2183 65.185 47.1665 65.4396ZM82.7627 40.9693C82.5751 41.8931 82.039 42.6884 81.253 43.2087L76.5597 46.3168C76.5584 46.3174 76.5571 46.3187 76.5551 46.3194L59.8035 57.4132C58.5503 58.2432 57.0432 58.5693 55.559 58.3305C53.4108 57.986 51.2285 58.4578 49.4143 59.6591L47.6579 60.8224L32.9002 38.5384L36.715 22.0597C37.6972 17.8145 37.1795 13.343 35.3082 9.44759C35.2912 9.40691 35.2728 9.36755 35.2518 9.32883C34.8923 8.59266 34.4841 7.87813 34.0281 7.1892C33.141 5.84938 33.5091 4.03781 34.8496 3.15007C35.9821 2.40012 37.5122 2.54184 38.4872 3.48732L41.0415 5.96355C43.8044 8.64252 45.9729 11.9652 47.3115 15.5726L48.7024 19.3197C48.7051 19.3269 48.7077 19.3328 48.7103 19.3394C48.7136 19.3479 48.7175 19.3571 48.7208 19.3656C48.7307 19.3886 48.7398 19.4096 48.7497 19.4273C48.7766 19.4837 48.8061 19.5395 48.8415 19.5926C49.2497 20.2088 50.079 20.3774 50.6945 19.9693L64.9567 10.525C66.5787 9.45087 68.7721 9.89638 69.8462 11.5183C70.9203 13.1403 70.4748 15.3337 68.8528 16.4078L67.6147 17.228C67.6147 17.228 67.614 17.228 67.6134 17.2286L64.8517 19.0579C64.8478 19.0605 64.8452 19.0632 64.8412 19.0651C64.8255 19.0763 64.8104 19.0868 64.7979 19.0973C64.2271 19.5165 64.0795 20.3137 64.4751 20.9108C64.8826 21.5269 65.7126 21.6955 66.3287 21.2874L69.0923 19.4568C69.8777 18.9378 70.8179 18.7548 71.7411 18.9424C72.6643 19.1301 73.4601 19.6661 73.9798 20.4522C74.5001 21.2376 74.6838 22.1791 74.4962 23.1023C74.3085 24.0261 73.7725 24.8213 72.9864 25.3416L68.9853 27.9917C68.3692 28.3992 68.2006 29.2286 68.6087 29.8447C68.8659 30.2331 69.2911 30.4437 69.7248 30.4437C69.9781 30.4437 70.2346 30.3715 70.4616 30.2213L71.081 29.8112L73.2239 28.392C74.8465 27.3179 77.0393 27.7634 78.1134 29.3854C79.1875 31.008 78.742 33.2008 77.12 34.2755L75.1215 35.5989C75.111 35.6055 75.1005 35.6127 75.09 35.6199L73.119 36.9249C72.5028 37.3324 72.3342 38.1624 72.7423 38.7785C72.9995 39.1669 73.4247 39.3775 73.8584 39.3775C74.1117 39.3775 74.3682 39.3054 74.5952 39.1551L75.2146 38.745C75.2146 38.745 75.2146 38.7444 75.2153 38.7444L77.3582 37.3258C78.1436 36.8055 79.0845 36.6218 80.0083 36.8101C80.9321 36.9971 81.7274 37.5338 82.2477 38.3192C82.7673 39.1046 82.9504 40.0461 82.7627 40.9693Z" fill="#4A0059" stroke="#4A0059" stroke-width="1.9961" mask="url(#path-1-inside-1)"/>
</g>
<defs>
<clipPath id="clip0">
<rect width="86" height="86" fill="white"/>
</clipPath>
</defs>
</svg>
