<svg width="432" height="432" viewBox="0 0 432 432" fill="none" xmlns="http://www.w3.org/2000/svg" opacity="0.4">
<g style="mix-blend-mode:overlay">
<path d="M215.871 431.999C165.91 431.969 117.505 414.621 78.899 382.91C40.2928 351.199 13.8731 307.085 4.13942 258.082C-5.59422 209.079 1.96004 158.217 25.5158 114.158C49.0715 70.0997 87.1719 35.569 133.328 16.4472C179.484 -2.6747 230.842 -5.2052 278.654 9.2867C326.467 23.7786 367.777 54.3967 395.55 95.9263C423.323 137.456 435.841 187.329 430.971 237.052C426.102 286.774 404.147 333.271 368.845 368.624C348.81 388.786 324.972 404.77 298.712 415.649C272.453 426.528 244.294 432.086 215.871 431.999ZM215.871 0.8523C173.34 0.8523 131.765 13.4641 96.402 37.0928C61.0392 60.7214 33.4772 94.3058 17.2015 133.599C0.92576 172.892 -3.33276 216.129 4.96453 257.842C13.2618 299.555 33.7423 337.871 63.8159 367.945C93.8895 398.019 132.206 418.499 173.919 426.796C215.632 435.094 258.869 430.835 298.162 414.559C337.455 398.284 371.04 370.722 394.668 335.359C418.297 299.996 430.909 258.421 430.909 215.89C430.845 158.878 408.169 104.219 367.855 63.9057C327.542 23.5921 272.883 0.915926 215.871 0.8523Z" fill="#53015A"/>
</g>
<g style="mix-blend-mode:overlay">
<path d="M214.845 404.278C177.378 404.278 140.752 393.167 109.599 372.351C78.4469 351.535 54.1668 321.948 39.8297 287.333C25.4926 252.717 21.7423 214.627 29.0534 177.88C36.3645 141.133 54.4085 107.38 80.9034 80.8878C107.398 54.3959 141.154 36.3559 177.902 29.0491C214.65 21.7422 252.739 25.4967 287.353 39.8378C321.967 54.1789 351.551 78.4625 372.364 109.617C393.176 140.772 404.283 177.4 404.278 214.867C404.22 265.088 384.243 313.235 348.729 348.745C313.216 384.254 265.066 404.226 214.845 404.278ZM214.845 26.5278C177.595 26.5278 141.182 37.5737 110.21 58.2687C79.2374 78.9636 55.0975 108.378 40.8426 142.793C26.5876 177.207 22.8579 215.076 30.125 251.61C37.3921 288.144 55.3297 321.703 81.6694 348.043C108.009 374.382 141.568 392.32 178.102 399.587C214.636 406.854 252.505 403.124 286.919 388.869C321.334 374.614 350.748 350.475 371.443 319.502C392.138 288.53 403.184 252.117 403.184 214.867C403.12 164.94 383.256 117.077 347.948 81.7769C312.64 46.4773 264.772 26.6238 214.845 26.5716V26.5278Z" fill="#53015A"/>
</g>
<g style="mix-blend-mode:overlay">
<path d="M216.022 378.866C183.808 378.871 152.316 369.322 125.53 351.428C98.7433 333.533 77.8649 308.097 65.5352 278.336C53.2055 248.576 49.9785 215.827 56.262 184.232C62.5455 152.637 78.0574 123.615 100.836 100.836C123.615 78.0576 152.637 62.5457 184.232 56.2621C215.827 49.9786 248.575 53.2057 278.336 65.5354C308.097 77.8651 333.533 98.7435 351.427 125.53C369.322 152.317 378.87 183.808 378.866 216.022C378.82 259.197 361.648 300.59 331.119 331.119C300.59 361.648 259.197 378.82 216.022 378.866ZM216.022 54.1868C184.026 54.1824 152.747 63.6664 126.142 81.4392C99.5359 99.212 78.798 124.475 66.5507 154.034C54.3034 183.594 51.0967 216.121 57.3361 247.502C63.5756 278.884 78.9809 307.711 101.604 330.337C124.227 352.963 153.051 368.372 184.432 374.616C215.813 380.859 248.341 377.657 277.901 365.414C307.462 353.17 332.728 332.436 350.505 305.833C368.281 279.229 377.769 247.952 377.769 215.956C377.705 173.082 360.642 131.982 330.321 101.669C300 71.3567 258.896 54.3048 216.022 54.2526V54.1868Z" fill="#53015A"/>
</g>
<g style="mix-blend-mode:overlay">
<path d="M214.867 349.989C188.136 349.994 162.004 342.138 139.776 327.417C117.549 312.696 100.223 291.77 89.992 267.286C79.7605 242.801 77.0823 215.859 82.2962 189.865C87.5101 163.872 100.382 139.995 119.283 121.255C138.185 102.515 162.267 89.7536 188.485 84.5843C214.702 79.415 241.877 82.0703 266.572 92.2143C291.268 102.358 312.374 119.535 327.222 141.573C342.071 163.611 349.994 189.519 349.989 216.022C349.931 251.535 335.677 285.577 310.349 310.688C285.021 335.799 250.686 349.932 214.867 349.989ZM214.867 83.1145C188.35 83.0974 162.423 90.8777 140.367 105.471C118.311 120.065 101.115 140.816 90.9556 165.1C80.7961 189.384 78.129 216.11 83.2916 241.897C88.4542 267.685 101.215 291.375 119.959 309.971C138.703 328.567 162.589 341.233 188.595 346.369C214.601 351.504 241.559 348.877 266.059 338.82C290.559 328.763 311.5 311.728 326.234 289.87C340.968 268.012 348.832 242.312 348.832 216.022C348.798 180.798 334.675 147.026 309.562 122.111C284.448 97.1957 250.394 83.1718 214.867 83.1145Z" fill="#53015A"/>
</g>
<g style="mix-blend-mode:overlay">
<path d="M216.022 324.578C194.545 324.582 173.55 318.217 155.691 306.288C137.832 294.359 123.912 277.402 115.692 257.561C107.471 237.72 105.319 215.887 109.508 194.823C113.696 173.759 124.038 154.41 139.224 139.224C154.41 124.038 173.759 113.697 194.823 109.508C215.887 105.319 237.72 107.471 257.561 115.692C277.402 123.912 294.359 137.832 306.288 155.691C318.217 173.55 324.582 194.545 324.577 216.022C324.543 244.802 313.094 272.393 292.744 292.744C272.393 313.095 244.802 324.543 216.022 324.578ZM216.022 108.539C194.763 108.535 173.98 114.835 156.302 126.643C138.623 138.451 124.844 155.235 116.705 174.875C108.567 194.514 106.435 216.126 110.58 236.977C114.725 257.828 124.96 276.982 139.991 292.016C155.021 307.05 174.173 317.289 195.023 321.438C215.873 325.587 237.485 323.459 257.127 315.325C276.768 307.19 293.556 293.414 305.367 275.738C317.178 258.062 323.482 237.281 323.482 216.022C323.436 187.54 312.098 160.238 291.954 140.102C271.81 119.967 244.504 108.64 216.022 108.605V108.539Z" fill="#53015A"/>
</g>
</svg>
